<?xml version="1.0" encoding="UTF-8" standalone="no"?>
<svg
   xmlns:dc="http://purl.org/dc/elements/1.1/"
   xmlns:cc="http://creativecommons.org/ns#"
   xmlns:rdf="http://www.w3.org/1999/02/22-rdf-syntax-ns#"
   xmlns:svg="http://www.w3.org/2000/svg"
   xmlns="http://www.w3.org/2000/svg"
   viewBox="0 0 1281.0896 883.81328"
   height="1104.7666"
   width="1601.3621"
   xml:space="preserve"
   id="svg10"
   version="1.1"><metadata
     id="metadata16"><rdf:RDF><cc:Work
         rdf:about=""><dc:format>image/svg+xml</dc:format><dc:type
           rdf:resource="http://purl.org/dc/dcmitype/StillImage" /><dc:title></dc:title></cc:Work></rdf:RDF></metadata><defs
     id="defs14"><clipPath
       id="clipPath38"
       clipPathUnits="userSpaceOnUse"><path
         id="path36"
         d="m 6414,11586.8 c -2942.47,171.3 -5302.22,3284.3 -3736.46,5091 642.03,740.8 1397.22,519.8 2189.62,298.8 706.35,-196.9 1442.28,-393.9 2154,90.4 2323.32,1580.8 6087.34,1868.2 6585.54,-124.6 498.2,-1992.7 -1152.1,-5106.5 -2382,-5293.3 -1229.94,-186.8 -4810.7,-62.3 -4810.7,-62.3" /></clipPath><clipPath
       clipPathUnits="userSpaceOnUse"
       id="clipPath6523"><path
         d="M 12192,938.402 H 5841.6 V 996 h 1060.8 v 1204.8 h 676.8 v 398.4 h 705.6 v 19.2 h 2198.4 V 3741.6 H 12192 V 938.402 M 9684.54,1747.93 v -60.86 h 100.29 v 60.86 h -100.29 m 135.18,191.31 v -60.85 h 100.29 v 60.85 h -100.29 m 270.38,67.02 v -60.85 h 100.3 v 60.85 h -100.3"
         id="path6521" /></clipPath><clipPath
       clipPathUnits="userSpaceOnUse"
       id="clipPath6535"><path
         d="m 8140.8,3741.6 h -561.6 v 648 h 705.6 v -96 h -144 v -552"
         id="path6533" /></clipPath><clipPath
       clipPathUnits="userSpaceOnUse"
       id="clipPath6547"><path
         d="m 8284.8,2599.2 h -705.6 v 1142.4 h 561.6 V 2618.4 h 144 v -19.2"
         id="path6545" /></clipPath><clipPath
       clipPathUnits="userSpaceOnUse"
       id="clipPath6559"><path
         d="m 7579.2,4495.2 h 1483.2 v 2328 H 7579.2 Z"
         id="path6557" /></clipPath><clipPath
       clipPathUnits="userSpaceOnUse"
       id="clipPath6571"><path
         d="M 4171.2,2200.8 H 585.602 V 6895.2 H 7579.2 v -72 h -201.6 v -2328 h 201.6 v -105.6 h -1248 v -648 H 5841.6 V 3732 H 5563.2 V 4965.6 H 4406.4 V 3732 H 4171.2 V 2200.8 M 1852.8,4164 V 2402.4 h 1920 V 4164 h -1920 m 340.8,2323.2 V 5085.6 H 3264 V 6487.2 H 2193.6"
         id="path6569" /></clipPath><clipPath
       clipPathUnits="userSpaceOnUse"
       id="clipPath6577"><path
         d="M 576,3871.2 H 2337.6 V 6904.8 H 576 Z"
         id="path6575" /></clipPath><clipPath
       clipPathUnits="userSpaceOnUse"
       id="clipPath6589"><path
         d="M 4171.2,2200.8 H 585.602 V 6895.2 H 7579.2 v -72 h -201.6 v -2328 h 201.6 v -105.6 h -1248 v -648 H 5841.6 V 3732 H 5563.2 V 4965.6 H 4406.4 V 3732 H 4171.2 V 2200.8 M 1852.8,4164 V 2402.4 h 1920 V 4164 h -1920 m 340.8,2323.2 V 5085.6 H 3264 V 6487.2 H 2193.6"
         id="path6587" /></clipPath><clipPath
       clipPathUnits="userSpaceOnUse"
       id="clipPath6595"><path
         d="m 2328,6223.2 h 5260.8 v 681.602 H 2328 Z"
         id="path6593" /></clipPath><clipPath
       clipPathUnits="userSpaceOnUse"
       id="clipPath6607"><path
         d="M 4171.2,2200.8 H 585.602 V 6895.2 H 7579.2 v -72 h -201.6 v -2328 h 201.6 v -105.6 h -1248 v -648 H 5841.6 V 3732 H 5563.2 V 4965.6 H 4406.4 V 3732 H 4171.2 V 2200.8 M 1852.8,4164 V 2402.4 h 1920 V 4164 h -1920 m 340.8,2323.2 V 5085.6 H 3264 V 6487.2 H 2193.6"
         id="path6605" /></clipPath><clipPath
       clipPathUnits="userSpaceOnUse"
       id="clipPath6613"><path
         d="m 3028.8,4879.2 h 4560 v 1353.6 h -4560 z"
         id="path6611" /></clipPath><clipPath
       clipPathUnits="userSpaceOnUse"
       id="clipPath6625"><path
         d="M 4171.2,2200.8 H 585.602 V 6895.2 H 7579.2 v -72 h -201.6 v -2328 h 201.6 v -105.6 h -1248 v -648 H 5841.6 V 3732 H 5563.2 V 4965.6 H 4406.4 V 3732 H 4171.2 V 2200.8 M 1852.8,4164 V 2402.4 h 1920 V 4164 h -1920 m 340.8,2323.2 V 5085.6 H 3264 V 6487.2 H 2193.6"
         id="path6623" /></clipPath><clipPath
       clipPathUnits="userSpaceOnUse"
       id="clipPath6631"><path
         d="m 2328,3871.2 h 710.398 V 5224.8 H 2328 Z"
         id="path6629" /></clipPath><clipPath
       clipPathUnits="userSpaceOnUse"
       id="clipPath6643"><path
         d="M 4171.2,2200.8 H 585.602 V 6895.2 H 7579.2 v -72 h -201.6 v -2328 h 201.6 v -105.6 h -1248 v -648 H 5841.6 V 3732 H 5563.2 V 4965.6 H 4406.4 V 3732 H 4171.2 V 2200.8 M 1852.8,4164 V 2402.4 h 1920 V 4164 h -1920 m 340.8,2323.2 V 5085.6 H 3264 V 6487.2 H 2193.6"
         id="path6641" /></clipPath><clipPath
       clipPathUnits="userSpaceOnUse"
       id="clipPath6649"><path
         d="M 3028.8,3871.2 H 4435.2 V 4888.8 H 3028.8 Z"
         id="path6647" /></clipPath><clipPath
       clipPathUnits="userSpaceOnUse"
       id="clipPath6661"><path
         d="M 4171.2,2200.8 H 585.602 V 6895.2 H 7579.2 v -72 h -201.6 v -2328 h 201.6 v -105.6 h -1248 v -648 H 5841.6 V 3732 H 5563.2 V 4965.6 H 4406.4 V 3732 H 4171.2 V 2200.8 M 1852.8,4164 V 2402.4 h 1920 V 4164 h -1920 m 340.8,2323.2 V 5085.6 H 3264 V 6487.2 H 2193.6"
         id="path6659" /></clipPath><clipPath
       clipPathUnits="userSpaceOnUse"
       id="clipPath6667"><path
         d="M 5476.8,3535.2 H 6537.6 V 4888.8 H 5476.8 Z"
         id="path6665" /></clipPath><clipPath
       clipPathUnits="userSpaceOnUse"
       id="clipPath6679"><path
         d="M 4171.2,2200.8 H 585.602 V 6895.2 H 7579.2 v -72 h -201.6 v -2328 h 201.6 v -105.6 h -1248 v -648 H 5841.6 V 3732 H 5563.2 V 4965.6 H 4406.4 V 3732 H 4171.2 V 2200.8 M 1852.8,4164 V 2402.4 h 1920 V 4164 h -1920 m 340.8,2323.2 V 5085.6 H 3264 V 6487.2 H 2193.6"
         id="path6677" /></clipPath><clipPath
       clipPathUnits="userSpaceOnUse"
       id="clipPath6685"><path
         d="m 6528,4207.2 h 1060.8 v 681.602 H 6528 Z"
         id="path6683" /></clipPath><clipPath
       clipPathUnits="userSpaceOnUse"
       id="clipPath6697"><path
         d="M 4171.2,2200.8 H 585.602 V 6895.2 H 7579.2 v -72 h -201.6 v -2328 h 201.6 v -105.6 h -1248 v -648 H 5841.6 V 3732 H 5563.2 V 4965.6 H 4406.4 V 3732 H 4171.2 V 2200.8 M 1852.8,4164 V 2402.4 h 1920 V 4164 h -1920 m 340.8,2323.2 V 5085.6 H 3264 V 6487.2 H 2193.6"
         id="path6695" /></clipPath><clipPath
       clipPathUnits="userSpaceOnUse"
       id="clipPath6703"><path
         d="M 576,2191.2 H 1987.2 V 3880.8 H 576 Z"
         id="path6701" /></clipPath><clipPath
       clipPathUnits="userSpaceOnUse"
       id="clipPath6715"><path
         d="M 4171.2,2200.8 H 585.602 V 6895.2 H 7579.2 v -72 h -201.6 v -2328 h 201.6 v -105.6 h -1248 v -648 H 5841.6 V 3732 H 5563.2 V 4965.6 H 4406.4 V 3732 H 4171.2 V 2200.8 M 1852.8,4164 V 2402.4 h 1920 V 4164 h -1920 m 340.8,2323.2 V 5085.6 H 3264 V 6487.2 H 2193.6"
         id="path6713" /></clipPath><clipPath
       clipPathUnits="userSpaceOnUse"
       id="clipPath6721"><path
         d="m 3729.6,2191.2 h 705.598 V 3880.8 H 3729.6 Z"
         id="path6719" /></clipPath><clipPath
       clipPathUnits="userSpaceOnUse"
       id="clipPath6733"><path
         d="M 4171.2,2200.8 H 585.602 V 6895.2 H 7579.2 v -72 h -201.6 v -2328 h 201.6 v -105.6 h -1248 v -648 H 5841.6 V 3732 H 5563.2 V 4965.6 H 4406.4 V 3732 H 4171.2 V 2200.8 M 1852.8,4164 V 2402.4 h 1920 V 4164 h -1920 m 340.8,2323.2 V 5085.6 H 3264 V 6487.2 H 2193.6"
         id="path6731" /></clipPath><clipPath
       clipPathUnits="userSpaceOnUse"
       id="clipPath6739"><path
         d="m 1977.6,2191.2 h 1761.6 v 345.602 H 1977.6 Z"
         id="path6737" /></clipPath><clipPath
       clipPathUnits="userSpaceOnUse"
       id="clipPath6751"><path
         d="m 7579.2,2200.8 h -676.8 v 398.4 h 676.8 V 2200.8 M 6331.2,3732 h -489.6 v 9.6 h 489.6 v -9.6"
         id="path6749" /></clipPath><clipPath
       clipPathUnits="userSpaceOnUse"
       id="clipPath6763"><path
         d="m 6331.2,3741.6 h 1248 v 648 h -1248 z"
         id="path6761" /></clipPath><clipPath
       clipPathUnits="userSpaceOnUse"
       id="clipPath6775"><path
         d="M 7579.2,2599.2 H 6902.4 V 3732 h -571.2 v 9.6 h 1248 V 2599.2"
         id="path6773" /></clipPath><clipPath
       clipPathUnits="userSpaceOnUse"
       id="clipPath6787"><path
         d="m 7377.6,4495.2 h 201.598 v 2328 H 7377.6 Z"
         id="path6785" /></clipPath><clipPath
       clipPathUnits="userSpaceOnUse"
       id="clipPath6799"><path
         d="M 2193.6,5085.6 H 3264 V 6487.2 H 2193.6 Z"
         id="path6797" /></clipPath><clipPath
       clipPathUnits="userSpaceOnUse"
       id="clipPath6811"><path
         d="m 1852.8,2402.4 h 1920 V 4164 h -1920 z"
         id="path6809" /></clipPath><clipPath
       clipPathUnits="userSpaceOnUse"
       id="clipPath6823"><path
         d="M 5563.2,3732 H 4406.4 V 4965.6 H 5563.2 V 3732 m -676.77,1068.49 c -3.46,0 -6.92,-0.05 -10.41,-0.17 -11.83,-0.39 -23.8,-1.44 -35.62,-3.16 -143.33,-20.75 -255.19,-140.68 -265.98,-285.15 -5.89,-78.62 17.36,-154.36 63.86,-214.67 1.75,-2.28 4.36,-3.41 6.99,-3.41 2.57,0 5.17,1.08 7,3.23 l 18.86,22.45 c 2.68,3.17 2.74,7.75 0.27,11.09 -32.9,44.83 -51.17,99.06 -51.41,156.07 -0.56,138.38 107,255.37 244.86,266.35 7.45,0.61 14.84,0.91 22.17,0.91 142.68,0 260.7,-113.97 265.43,-257.57 1.77,-54.02 -12.99,-106.5 -41.46,-151.25 -2.22,-3.52 -1.86,-8.06 1.05,-11.05 l 20.32,-21.18 c 1.79,-1.88 4.18,-2.8 6.55,-2.8 2.83,0 5.64,1.31 7.36,3.87 36.08,53.7 54.84,117.52 52.65,183.94 -5.55,168.9 -144.74,302.5 -312.49,302.5 m 0.1,-106.55 c -16.99,0 -34,-2.03 -50.5,-6.08 -97.19,-23.73 -165.35,-113.52 -162.05,-213.57 1.1,-33.58 9.96,-65.48 25.7,-94.26 1.94,-3.5 5.48,-5.34 9.05,-5.34 2.85,0 5.71,1.18 7.77,3.64 l 22.57,26.86 c 2.54,3.01 3.01,7.18 1.41,10.75 -8.51,18.89 -13.34,39.28 -14.03,60.08 -2.19,66.9 38.12,128.73 100.29,153.83 19.02,7.66 39.42,11.51 59.83,11.51 16.86,0 33.71,-2.62 49.79,-7.91 63.7,-20.96 107.96,-80 110.16,-146.91 0.69,-20.79 -2.79,-41.46 -9.99,-60.86 -1.37,-3.69 -0.63,-7.82 2.09,-10.64 l 24.31,-25.32 c 2.03,-2.13 4.69,-3.14 7.32,-3.14 3.8,0 7.55,2.1 9.32,5.96 13.85,29.74 20.59,62.19 19.49,95.73 -3.3,100.05 -77.21,185.18 -175.81,202.46 -12.09,2.14 -24.4,3.21 -36.72,3.21 m -0.27,-104.19 c -1.1,0 -2.2,-0.02 -3.31,-0.05 -54.57,-1.79 -97.34,-47.46 -95.54,-102.02 1.09,-33.27 14.41,-62.07 39.37,-79.14 v 62.43 c 0,34.38 27.87,62.24 62.24,62.24 34.38,0 62.25,-27.86 62.25,-62.24 v -59.52 c 23.92,18.63 34.83,48.96 33.72,82.74 -1.75,53.44 -45.68,95.56 -98.73,95.56"
         id="path6821" /></clipPath><clipPath
       clipPathUnits="userSpaceOnUse"
       id="clipPath6835"><path
         d="M 4171.2,996 H 5841.6 V 2200.8 H 4171.2 Z"
         id="path6833" /></clipPath><clipPath
       clipPathUnits="userSpaceOnUse"
       id="clipPath6847"><path
         d="M 5841.6,996 H 6902.4 V 2200.8 H 5841.6 Z"
         id="path6845" /></clipPath><clipPath
       clipPathUnits="userSpaceOnUse"
       id="clipPath6859"><path
         d="M 5841.6,2200.8 H 4171.2 V 3732 h 235.2 v -28.8 h 1156.8 v 28.8 h 278.4 V 2200.8"
         id="path6857" /></clipPath><clipPath
       clipPathUnits="userSpaceOnUse"
       id="clipPath6871"><path
         d="M 6902.4,2200.8 H 5841.6 V 3732 h 489.6 V 2599.2 h 571.2 v -398.4"
         id="path6869" /></clipPath><clipPath
       clipPathUnits="userSpaceOnUse"
       id="clipPath6883"><path
         d="m 6331.2,2599.2 h 571.199 V 3732 H 6331.2 Z"
         id="path6881" /></clipPath><clipPath
       clipPathUnits="userSpaceOnUse"
       id="clipPath6895"><path
         d="m 4406.4,3703.2 h 1156.8 v 28.8008 H 4406.4 Z"
         id="path6893" /></clipPath><clipPath
       clipPathUnits="userSpaceOnUse"
       id="clipPath6907"><path
         d="m 8284.8,3741.6 h 2198.4 v 552 H 8284.8 Z"
         id="path6905" /></clipPath><clipPath
       clipPathUnits="userSpaceOnUse"
       id="clipPath6919"><path
         d="m 8284.8,2618.4 h 2198.4 V 3741.6 H 8284.8 Z"
         id="path6917" /></clipPath><clipPath
       clipPathUnits="userSpaceOnUse"
       id="clipPath6931"><path
         d="m 8140.8,3741.6 h 144 v 552 h -144 z"
         id="path6929" /></clipPath><clipPath
       clipPathUnits="userSpaceOnUse"
       id="clipPath6943"><path
         d="m 8140.8,2618.4 h 144 v 1123.2 h -144 z"
         id="path6941" /></clipPath><clipPath
       clipPathUnits="userSpaceOnUse"
       id="clipPath6987"><path
         d="m 10090.1,1945.41 h 100.297 v 60.8516 H 10090.1 Z"
         id="path6985" /></clipPath><clipPath
       clipPathUnits="userSpaceOnUse"
       id="clipPath6999"><path
         d="m 9819.72,1878.39 h 100.293 v 60.8516 H 9819.72 Z"
         id="path6997" /></clipPath><clipPath
       clipPathUnits="userSpaceOnUse"
       id="clipPath7015"><path
         d="m 9684.54,1687.07 h 100.293 v 60.8594 H 9684.54 Z"
         id="path7013" /></clipPath><clipPath
       clipPathUnits="userSpaceOnUse"
       id="clipPath7175"><path
         d="m 4826.78,4408.54 c -24.96,17.07 -38.28,45.87 -39.37,79.14 -1.8,54.56 40.97,100.23 95.54,102.02 1.11,0.03 2.21,0.05 3.31,0.05 53.05,0 96.98,-42.12 98.73,-95.56 1.11,-33.78 -9.8,-64.11 -33.72,-82.74 v 59.52 c 0,34.38 -27.87,62.24 -62.25,62.24 -34.37,0 -62.24,-27.86 -62.24,-62.24 v -62.43"
         id="path7173" /></clipPath><clipPath
       clipPathUnits="userSpaceOnUse"
       id="clipPath7187"><path
         d="m 4645.27,4293.93 c -2.63,0 -5.24,1.13 -6.99,3.41 -46.5,60.31 -69.75,136.05 -63.86,214.67 10.79,144.47 122.65,264.4 265.98,285.15 11.82,1.72 23.79,2.77 35.62,3.16 3.49,0.12 6.95,0.17 10.41,0.17 167.75,0 306.94,-133.6 312.49,-302.5 2.19,-66.42 -16.57,-130.24 -52.65,-183.94 -1.72,-2.56 -4.53,-3.87 -7.36,-3.87 -2.37,0 -4.76,0.92 -6.55,2.8 l -20.32,21.18 c -2.91,2.99 -3.27,7.53 -1.05,11.05 28.47,44.75 43.23,97.23 41.46,151.25 -4.73,143.6 -122.75,257.57 -265.43,257.57 -7.33,0 -14.72,-0.3 -22.17,-0.91 -137.86,-10.98 -245.42,-127.97 -244.86,-266.35 0.24,-57.01 18.51,-111.24 51.41,-156.07 2.47,-3.34 2.41,-7.92 -0.27,-11.09 l -18.86,-22.45 c -1.83,-2.15 -4.43,-3.23 -7,-3.23"
         id="path7185" /></clipPath><clipPath
       clipPathUnits="userSpaceOnUse"
       id="clipPath7199"><path
         d="m 4708.73,4374.69 c -3.57,0 -7.11,1.84 -9.05,5.34 -15.74,28.78 -24.6,60.68 -25.7,94.26 -3.3,100.05 64.86,189.84 162.05,213.57 16.5,4.05 33.51,6.08 50.5,6.08 12.32,0 24.63,-1.07 36.72,-3.21 98.6,-17.28 172.51,-102.41 175.81,-202.46 1.1,-33.54 -5.64,-65.99 -19.49,-95.73 -1.77,-3.86 -5.52,-5.96 -9.32,-5.96 -2.63,0 -5.29,1.01 -7.32,3.14 l -24.31,25.32 c -2.72,2.82 -3.46,6.95 -2.09,10.64 7.2,19.4 10.68,40.07 9.99,60.86 -2.2,66.91 -46.46,125.95 -110.16,146.91 -16.08,5.29 -32.93,7.91 -49.79,7.91 -20.41,0 -40.81,-3.85 -59.83,-11.51 -62.17,-25.1 -102.48,-86.93 -100.29,-153.83 0.69,-20.8 5.52,-41.19 14.03,-60.08 1.6,-3.57 1.13,-7.74 -1.41,-10.75 l -22.57,-26.86 c -2.06,-2.46 -4.92,-3.64 -7.77,-3.64"
         id="path7197" /></clipPath><clipPath
       clipPathUnits="userSpaceOnUse"
       id="clipPath7986"><path
         d="m 26290.9,11348.1 h -2367 c -1.2,57.8 2.4,552.7 452,869.9 478,337.3 725.9,196.5 1009.2,567.9 189.6,248.6 419,385.8 625.1,385.8 101.8,0 197.8,-33.4 280.7,-103.5 v -1720.1"
         id="path7984" /></clipPath><clipPath
       clipPathUnits="userSpaceOnUse"
       id="clipPath8698"><path
         d="m 3355.48,1975.14 c -65.36,0 -118.34,-52.9 -118.34,-118.27 V 402.68 c 0,-68.578 -56.2,-119.989 -119.75,-119.989 -13.29,0 -26.9,2.219 -40.36,7.008 L 2179.8,608.422 c -47.87,17 -98.78,19.387 -146.65,8.25 V 1856.87 c 0,32.68 13.29,62.23 34.66,83.6 21.38,21.46 51,34.67 83.69,34.67 h 1203.98"
         id="path8696" /></clipPath><clipPath
       clipPathUnits="userSpaceOnUse"
       id="clipPath8720"><path
         d="M 3117.39,282.691 H 1913.4 c -13.2,0 -26.82,2.219 -40.27,7.008 l -207.87,73.102 258.54,199.07 c 32.19,27.149 69.74,45.641 109.35,54.801 47.87,11.137 98.78,8.75 146.65,-8.25 l 897.23,-318.723 c 13.46,-4.789 27.07,-7.008 40.36,-7.008"
         id="path8718" /></clipPath><clipPath
       clipPathUnits="userSpaceOnUse"
       id="clipPath8744"><path
         d="m 3439.08,1940.47 c -21.37,21.46 -50.92,34.67 -83.6,34.67 -123.21,0 -118.34,-118.27 -118.34,-118.27 V 1634.2 h 236.6 v 222.67 c 0,32.68 -13.29,62.23 -34.66,83.6"
         id="path8742" /></clipPath></defs><g
     transform="matrix(1.3333333,0,0,-1.3333333,-545.94228,2460.7275)"
     id="g18"><g
       transform="scale(0.1)"
       id="g20"><g
         id="g7732"
         transform="matrix(10,0,0,10,8842.0473,-24362.192)"><g
           id="g7734"
           transform="scale(0.1)"><path
             d="m 22663.6,18974.9 c -167.7,36.7 -336.2,68.3 -505.1,94.9 168.9,-26.5 337.4,-58.2 505.1,-94.9 m -508.1,95.3 c -0.5,0.1 -1.1,0.2 -1.6,0.3 0.5,-0.1 1.1,-0.2 1.6,-0.3"
             style="fill:#405996;fill-opacity:1;fill-rule:nonzero;stroke:none"
             id="path7740" /><path
             d="m 4313.7,7147.7 h 979.67 v 252.8 h -987.62 c -67.62,0 -122.43,-54.8 -122.43,-122.4 0,-72 58.37,-130.4 130.38,-130.4"
             style="fill:#2b478b;fill-opacity:1;fill-rule:nonzero;stroke:none"
             id="path7754" /><path
             d="m 5237.13,7147.7 h 1114.95 v 252.8 H 5234.31 c -68.75,0 -124.49,-55.7 -124.49,-124.4 v -1.1 c 0,-70.3 57,-127.3 127.31,-127.3"
             style="fill:#fcecdb;fill-opacity:1;fill-rule:nonzero;stroke:none"
             id="path7756" /><path
             d="M 5035.38,7147.7 H 6390.8 c 10.44,0 18.91,8.5 18.91,18.9 0,10.5 -8.47,18.9 -18.91,18.9 H 5035.38 c -10.45,0 -18.91,-8.4 -18.91,-18.9 0,-10.4 8.46,-18.9 18.91,-18.9"
             style="fill:#2b478b;fill-opacity:1;fill-rule:nonzero;stroke:none"
             id="path7758" /><path
             d="M 5035.38,7362.7 H 6390.8 c 10.44,0 18.91,8.5 18.91,18.9 0,10.5 -8.47,18.9 -18.91,18.9 H 5035.38 c -10.45,0 -18.91,-8.4 -18.91,-18.9 0,-10.4 8.46,-18.9 18.91,-18.9"
             style="fill:#2b478b;fill-opacity:1;fill-rule:nonzero;stroke:none"
             id="path7760" /><path
             d="m 6352.08,7274.1 -150.61,-4.2 150.61,-2.6 z"
             style="fill:#f4d2b8;fill-opacity:1;fill-rule:nonzero;stroke:none"
             id="path7762" /><path
             d="m 6352.08,7332.3 -358.31,-4.2 358.31,-2.6 z"
             style="fill:#f4d2b8;fill-opacity:1;fill-rule:nonzero;stroke:none"
             id="path7764" /><path
             d="m 5997.46,7328.9 c 0,0 15.36,-10.9 20.44,-28.7 0.9,-3.1 1.48,-6.5 1.59,-10 0.85,-23.7 0,-77.4 0,-77.4 l 45.34,26.8 45.21,-26.8 v 72.8 c 0,13.7 -3.88,27.1 -11.08,35.9 -3.49,4.2 -7.73,7.4 -12.52,7.4 h -88.98"
             style="fill:#f99746;fill-opacity:1;fill-rule:nonzero;stroke:none"
             id="path7766" /><path
             d="m 5997.46,7328.9 c 0,0 15.36,-10.9 20.44,-28.7 l 90.85,-1.1 c 0,0 -3.56,25.6 -22.31,29.8 h -88.98"
             style="fill:#ed7d2b;fill-opacity:1;fill-rule:nonzero;stroke:none"
             id="path7768" /><path
             d="m 12889.1,1851.6 7.1,0.2 c 58,1.2 102.7,57.2 97.3,121.5 l -387,4557.6 -337.6,-35.5 555.6,-4582.2 c 4.4,-35.8 32.1,-62.3 64.6,-61.6"
             style="fill:#6683d3;fill-opacity:1;fill-rule:nonzero;stroke:none"
             id="path7770" /><path
             d="m 9163.13,1851.6 -7.09,0.2 c -58,1.2 -102.8,57.2 -97.33,121.5 l 386.94,4557.6 337.65,-35.5 -555.62,-4582.2 c -4.35,-35.8 -32.1,-62.3 -64.55,-61.6"
             style="fill:#6683d3;fill-opacity:1;fill-rule:nonzero;stroke:none"
             id="path7772" /><path
             d="m 15618.9,1851.6 7.1,0.2 c 58,1.2 102.8,57.2 97.3,121.5 l -386.9,4557.6 -337.7,-35.5 555.7,-4582.2 c 4.3,-35.8 32.1,-62.3 64.5,-61.6"
             style="fill:#6683d3;fill-opacity:1;fill-rule:nonzero;stroke:none"
             id="path7774" /><path
             d="m 9278.37,7193.9 -686.85,4000.3 c -88.16,541.6 292.39,1036.8 786.49,1023.5 l 1324.69,-35.6 c 456.9,-12.4 854.2,-373.1 981.2,-890.9 L 12688.8,7193.9 H 9278.37"
             style="fill:#6683d3;fill-opacity:1;fill-rule:nonzero;stroke:none"
             id="path7776" /><path
             d="m 9693.91,7193.9 -686.85,4000.3 c -88.16,541.6 292.38,1036.8 786.48,1023.5 l 1324.66,-35.6 c 457,-12.4 854.3,-373.1 981.3,-890.9 L 13104.4,7193.9 H 9693.91"
             style="fill:#6683d3;fill-opacity:1;fill-rule:nonzero;stroke:none"
             id="path7778" /><path
             d="m 9486.28,6464.3 h 5207.92 c 114.3,0 207.9,93.5 207.9,207.9 V 6986 c 0,114.3 -93.6,207.9 -207.9,207.9 H 9278.37 v -521.7 c 0,-114.4 93.56,-207.9 207.91,-207.9"
             style="fill:#6683d3;fill-opacity:1;fill-rule:nonzero;stroke:none"
             id="path7780" /><path
             d="m 11942.5,6464.3 h 3314.3 c 92.2,0 167.5,75.3 167.5,167.4 v 394.7 c 0,92.1 -75.3,167.5 -167.5,167.5 h -3314.3 c -92.2,0 -167.5,-75.4 -167.5,-167.5 v -394.7 c 0,-92.1 75.3,-167.4 167.5,-167.4"
             style="fill:#6683d3;fill-opacity:1;fill-rule:nonzero;stroke:none"
             id="path7782" /><path
             d="m 8667.96,7064.4 v -131.1 c 0,-45.9 -14.86,-83.4 -32.99,-83.4 H 3850.53 c -18.14,0 -33,37.5 -33,83.4 v 131.1 c 0,45.8 14.86,83.4 33,83.4 h 4784.44 c 18.13,0 32.99,-37.6 32.99,-83.4"
             style="fill:#728fd6;fill-opacity:1;fill-rule:nonzero;stroke:none"
             id="path7808" /><path
             d="m 8667.96,7064.4 v -131.1 c 0,-45.9 -13.64,-83.4 -30.28,-83.4 H 4839.36 c -16.65,0 -30.29,37.5 -30.29,83.4 v 131.1 c 0,45.8 13.64,83.4 30.29,83.4 h 3798.32 c 16.64,0 30.28,-37.6 30.28,-83.4"
             style="fill:#7a98e2;fill-opacity:1;fill-rule:nonzero;stroke:none"
             id="path7810" /><path
             d="M 7457.02,1899.1 H 4060.37 V 6849.9 H 7457.02 V 1899.1"
             style="fill:#6683d3;fill-opacity:1;fill-rule:nonzero;stroke:none"
             id="path7812" /><path
             d="M 8408.9,1899.1 H 5012.24 V 6849.9 H 8408.9 V 1899.1"
             style="fill:#7a98e2;fill-opacity:1;fill-rule:nonzero;stroke:none"
             id="path7814" /><path
             d="M 5227.53,2205.1 H 8193.68 V 6677.3 H 5227.53 Z m 2998.89,-32.7 H 5194.8 V 6710 H 8226.42 V 2172.4"
             style="fill:#6683d3;fill-opacity:1;fill-rule:nonzero;stroke:none"
             id="path7816" /><path
             d="M 8210.05,5176.2 H 5211.17 v 32.7 h 2998.88 v -32.7"
             style="fill:#6683d3;fill-opacity:1;fill-rule:nonzero;stroke:none"
             id="path7818" /><path
             d="M 8210.05,3645.9 H 5211.17 v 32.7 h 2998.88 v -32.7"
             style="fill:#6683d3;fill-opacity:1;fill-rule:nonzero;stroke:none"
             id="path7820" /><path
             d="m 7017.9,6417.4 h -556.48 c -27.01,0 -49.11,22.1 -49.11,49.1 0,27 22.1,49.1 49.11,49.1 h 556.48 c 27,0 49.1,-22.1 49.1,-49.1 0,-27 -22.1,-49.1 -49.1,-49.1"
             style="fill:#6683d3;fill-opacity:1;fill-rule:nonzero;stroke:none"
             id="path7822" /><path
             d="m 7017.9,4920.9 h -556.48 c -27.01,0 -49.11,22.1 -49.11,49.1 0,27 22.1,49.1 49.11,49.1 h 556.48 c 27,0 49.1,-22.1 49.1,-49.1 0,-27 -22.1,-49.1 -49.1,-49.1"
             style="fill:#6683d3;fill-opacity:1;fill-rule:nonzero;stroke:none"
             id="path7824" /><path
             d="m 7017.9,3360.9 h -556.48 c -27.01,0 -49.11,22.1 -49.11,49.1 0,27 22.1,49.1 49.11,49.1 h 556.48 c 27,0 49.1,-22.1 49.1,-49.1 0,-27 -22.1,-49.1 -49.1,-49.1"
             style="fill:#6683d3;fill-opacity:1;fill-rule:nonzero;stroke:none"
             id="path7826" /><path
             d="m 19105.5,9735.1 h -5651.9 c 0,0 4875.7,5646.2 4881.6,5652.3 l 509,-455.1 v -3589.8 h -285.8 c -250.7,0 -453.8,-203.2 -453.8,-453.8 h 739.6 v -0.1 h 486.5 l -225.2,-1153.5"
             style="fill:#dfdbe1;fill-opacity:1;fill-rule:nonzero;stroke:none"
             id="path7850" /><path
             d="m 16814,9852.6 h 1502 v -117.7 h -1502 v 117.7"
             style="fill:#2a4e96;fill-opacity:1;fill-rule:nonzero;stroke:none"
             id="path7880" /><path
             d="m 21592.4,17039.4 c 0,17.9 14.6,32.5 32.5,32.5 17.9,0 32.5,-14.6 32.5,-32.5 0,-17.9 -14.6,-32.5 -32.5,-32.5 -17.9,0 -32.5,14.6 -32.5,32.5"
             style="fill:#ffffff;fill-opacity:1;fill-rule:nonzero;stroke:none"
             id="path7884" /><path
             d="m 14152.1,3146.2 c 0,0 -134.4,365.9 -401.2,739.7 -84.8,118.8 224.3,188.9 295.1,-23.6 70.8,-212.5 247.9,-808.6 247.9,-808.6 l -141.8,92.5"
             style="fill:#163560;fill-opacity:1;fill-rule:nonzero;stroke:none"
             id="path7898" /><path
             d="m 15787.6,2331.6 c 0,0 -409.5,701.9 -827.1,506.4 -185.1,-86.7 -179.6,-336.2 85,-522.1 144.9,-101.8 726,-417.5 726,-417.5 l 16.1,433.2"
             style="fill:#163560;fill-opacity:1;fill-rule:nonzero;stroke:none"
             id="path7900" /><path
             d="m 14870.9,4141.3 c 0,0 -186.6,-499.5 -147,-684.8 39.6,-185.3 -54.3,-510.8 21.5,-671.4 75.9,-160.6 -79.5,-298 -209.5,-357.1 -49.3,-22.4 -220.9,408.8 -253.8,540.1 -32.9,131.3 -140,403.1 -249.9,613.5 -109.9,210.5 -17.8,380.1 141,457.5 158.8,77.4 380.1,501.1 380.1,501.1 l 317.6,-398.9"
             style="fill:#ffb27d;fill-opacity:1;fill-rule:nonzero;stroke:none"
             id="path7902" /><path
             d="m 13996.9,14247.4 c -190.6,233 -544.7,295.7 -544.7,295.7 -697.4,585.8 -1301.4,-247.5 -1420.9,-553.3 -119.6,-305.6 -191.9,-824.9 -695.9,-1071.7 -895.2,-438.4 77,-1187.4 77,-1187.4 405.9,896.1 2299.1,-702.2 2212.3,-773.3 1769.5,-782.5 805.7,2760.3 372.2,3290"
             style="fill:#163560;fill-opacity:1;fill-rule:nonzero;stroke:none"
             id="path7904" /><path
             d="m 12400.8,11561.6 c 0,0 329.2,-591.9 790.7,-1083.1 243.8,-259.5 524.6,-490.9 813.2,-591.7 140.9,-49.2 283.6,-67.5 424.8,-42.7 90,15.7 50.9,547.6 -74.3,951.9 -164.9,532.5 -678.9,1855.8 -678.9,1855.8 l -294.1,-125.5 c 0,0 407.9,-1666.5 359.3,-1673.5 l -431.4,1091.6 -909.3,-382.8"
             style="fill:#e5925a;fill-opacity:1;fill-rule:nonzero;stroke:none"
             id="path7906" /><path
             d="m 11772.3,8861.3 c 0,0 3160.3,-186.4 3589,-477.8 713.4,-484.9 -310.9,-4468 -310.9,-4468 0,0 -847.8,-27 -915.2,197.4 0,0 152.5,2081.2 19,2440.7 -133.4,359.5 -51.1,857.8 -51.1,857.8 0,0 -1658.1,-253 -2184.7,-128.5 -526.6,124.6 -146.1,1578.4 -146.1,1578.4"
             style="fill:#ed7d2b;fill-opacity:1;fill-rule:nonzero;stroke:none"
             id="path7908" /><path
             d="m 15427.6,3366.2 c 0,0 179.7,-502 329.5,-618 149.8,-116 332.8,-431.7 494.4,-505.5 161.6,-73.8 185.2,-112.6 124,-241.6 -23.2,-49 -518.5,-131.4 -628.3,-52.3 -109.9,79.2 -119.3,237.2 -599.3,448.7 -217.2,95.7 -258.8,278.9 -187.4,440.5 71.4,161.6 -32.9,628.1 -32.9,628.1 l 500,-99.9"
             style="fill:#ffb27d;fill-opacity:1;fill-rule:nonzero;stroke:none"
             id="path7910" /><path
             d="m 9913.61,8978 c 0,0 4352.19,-803.2 4651.79,-1149.3 299.7,-346.1 1024.3,-4660.1 1024.3,-4660.1 0,0 -346.3,-194.3 -662.1,-14.5 0,0 -750.5,1563.7 -1023.2,2124.8 -413.2,849.9 -239,1318.9 -304.8,1333.9 -65.7,15 -2752,273.3 -3523.2,783.6 C 9621.96,7697.2 9913.61,8978 9913.61,8978"
             style="fill:#f99746;fill-opacity:1;fill-rule:nonzero;stroke:none"
             id="path7912" /><path
             d="m 13313.3,10354.7 c -133,-137.5 -70,-199.8 -70,-258.1 0,-222.8 -31.6,-275.3 -182.6,-354.8 -182.7,-96.1 -395.4,-146.3 -444,-292.5 l -0.1,-0.3 c -10.1,-30.3 -13.1,-64.9 -7.3,-104.8 109.7,-755.9 -597.4,-1152.7 -982.8,-1329 -238.7,-109.1 -682,-231.7 -1082.8,-275.3 -446.2,-48.6 -839.84,0.7 -840.55,275.3 -7.08,2374.3 893.75,3706.7 1553.75,4203.6 229.5,172.7 920.3,363.6 1352.4,169.1 204.5,-92 515.1,-212.7 700.8,-443.6 200.4,-249.1 431.5,-1091.6 431.5,-1091.6 -75.6,-443.7 -428.3,-498 -428.3,-498"
             style="fill:#f9ddbf;fill-opacity:1;fill-rule:nonzero;stroke:none"
             id="path7914" /><path
             d="m 11335.4,11376.2 c 3.7,-16.9 -62.2,-613.5 334.1,-1208.7 144.5,-216.9 -492.9,-128.2 -63.7,-592.6 48.7,146.3 1272.3,70.8 1454.9,166.9 l -813.5,709.6 -911.8,924.8"
             style="fill:#eac3a2;fill-opacity:1;fill-rule:nonzero;stroke:none"
             id="path7916" /><path
             d="m 13653.2,12512.2 c 0,0 211.6,252 248.7,328.4 37.1,76.3 -32.3,405.3 -118.6,403.1 -54.4,-1.3 -121.4,-200.6 -180.9,-273 -59.5,-72.4 -318.4,-175.4 -208.9,-479.8 12.4,-34.3 259.7,21.3 259.7,21.3"
             style="fill:#e5925a;fill-opacity:1;fill-rule:nonzero;stroke:none"
             id="path7918" /><path
             d="m 13115.1,12008.1 c 59.7,-89.6 -13.2,-340.7 -351.6,-262.5 -222.2,51.3 -655.1,411.7 -577,595.6 37.2,87.4 250.2,292.6 384.1,826.2 l 38.7,-18.5 651.6,-310.7 c 0,0 -70.6,-211.9 -122.9,-415.3 -44,-170.6 -47.6,-377.8 -22.9,-414.8"
             style="fill:#ffb27d;fill-opacity:1;fill-rule:nonzero;stroke:none"
             id="path7920" /><path
             d="m 13260.9,12838.2 c 0,0 -70.6,-211.9 -122.9,-415.3 -381.3,108.7 -495,510.7 -528.7,726 l 651.6,-310.7"
             style="fill:#f4a269;fill-opacity:1;fill-rule:nonzero;stroke:none"
             id="path7922" /><path
             d="m 13631.9,12721.5 c 0,0 -913.4,-211.9 -1036.6,359 -123.2,570.8 -324.1,927.9 253.9,1087.3 577.9,159.5 738.6,-33.8 826.1,-214.4 87.4,-180.5 191,-1162 -43.4,-1231.9"
             style="fill:#ffb27d;fill-opacity:1;fill-rule:nonzero;stroke:none"
             id="path7924" /><path
             d="m 13263.6,14271.4 c 0,0 -5.7,-656.9 -489.5,-975.8 -283.1,-186.5 -296.4,-377.5 -296.4,-377.5 0,0 -167.6,562.2 -194.2,985 0,0 722.4,646.5 980.1,368.3"
             style="fill:#163560;fill-opacity:1;fill-rule:nonzero;stroke:none"
             id="path7926" /><path
             d="m 13206.1,14155.4 c 0,0 270,-89.8 390.1,-189.2 177.8,-147.2 224.2,-625.8 203,-745 0,0 48.5,831.9 -219.3,1043.9 -284,224.7 -373.8,-109.7 -373.8,-109.7"
             style="fill:#163560;fill-opacity:1;fill-rule:nonzero;stroke:none"
             id="path7928" /><path
             d="m 11335.3,11376.4 c 93,-221.7 200.5,-430.1 314.6,-618.9 435.9,-720.6 968.9,-1156 1161.4,-953.1 53.2,56.1 187.6,137.7 47.1,439.4 -108.5,233.1 -242.9,524.6 -374.7,811.5 -271.9,591.6 -532.7,1163.5 -532.7,1163.5 -83,0 -956.2,-30.4 -615.7,-842.4"
             style="fill:#ffb27d;fill-opacity:1;fill-rule:nonzero;stroke:none"
             id="path7930" /><path
             d="m 12247.2,10451.4 c 29.9,17.9 1673.3,-381.2 2182.2,-505.4 93.4,-22.8 148.6,-36.4 148.6,-36.4 v -191.8 c 0,0 -1700.4,-79.8 -1966,42.2 -265.6,122 -519.1,405.8 -519.1,405.8 l 154.3,285.6"
             style="fill:#ffb27d;fill-opacity:1;fill-rule:nonzero;stroke:none"
             id="path7932" /><path
             d="m 11335.3,11376.4 c 93,-221.7 200.5,-430.1 314.6,-618.9 355.1,46 683,211.9 833.8,297.8 -271.9,591.6 -532.7,1163.5 -532.7,1163.5 -83,0 -956.2,-30.4 -615.7,-842.4"
             style="fill:#f9ddbf;fill-opacity:1;fill-rule:nonzero;stroke:none"
             id="path7934" /><path
             d="m 14429.4,9946 c 0,0 541.4,155.5 692,112.5 106.3,-30.3 242.1,-187.5 312.8,-277.5 20.6,-26.3 1.6,-64.7 -31.8,-64.3 -90.6,0.9 -237,6.8 -313.7,47.1 -72.4,38 -180.1,-45.7 -300.1,-46.2 -92.1,-0.4 -210.6,0.2 -210.6,0.2 l -148.6,228.2"
             style="fill:#ffb27d;fill-opacity:1;fill-rule:nonzero;stroke:none"
             id="path7936" /><path
             d="m 15494.6,2164.2 c 0,0 256.9,346.4 581.5,411.4 0,0 531.5,-244 578.8,-677.2 h -883.4 l -276.9,265.8"
             style="fill:#163560;fill-opacity:1;fill-rule:nonzero;stroke:none"
             id="path7938" /><path
             d="m 14152.1,3146.2 c 29.7,1.9 481.5,85.2 566.7,-68.4 100.3,-181 97.2,-612.9 -144.5,-732.1 -55.5,-27.4 -122.6,-0.2 -144.3,57.8 l -277.9,742.7"
             style="fill:#163560;fill-opacity:1;fill-rule:nonzero;stroke:none"
             id="path7940" /><path
             d="m 11626.5,8015.2 c -238.7,-109.1 -682,-231.7 -1082.8,-275.3 98.3,17.4 1613.6,605.8 1228.6,1121.4 -318.6,426.8 -445.4,675 -50,738.1 143.2,22.9 726.5,-122.3 894.3,-150.4 -10.1,-30.3 -13.1,-64.9 -7.3,-104.8 109.7,-755.9 -597.4,-1152.7 -982.8,-1329"
             style="fill:#eac3a2;fill-opacity:1;fill-rule:nonzero;stroke:none"
             id="path7942" /><path
             d="m 15332.7,9734.9 c 0,0 -141.6,182.7 -371.8,156.4 -230.2,-26.3 -382.9,-173.5 -382.9,-173.5 l 754.7,17.1"
             style="fill:#6683d3;fill-opacity:1;fill-rule:nonzero;stroke:none"
             id="path7944" /><path
             d="m 11383.7,1899.1 v 0 c -63.6,7.8 -93.5,67.2 -85.5,129.3 l 967.4,7484 266.7,-15.6 -1058.1,-7516.4 c -8.4,-48.2 -41,-87.5 -90.5,-81.3"
             style="fill:#163560;fill-opacity:1;fill-rule:nonzero;stroke:none"
             id="path7948" /><path
             d="m 22620.3,1899.1 v 0 c 63.6,7.8 93.5,67.2 85.5,129.3 l -967.5,7484 -266.6,-15.6 1058.1,-7516.4 c 8.4,-48.2 41,-87.5 90.5,-81.3"
             style="fill:#163560;fill-opacity:1;fill-rule:nonzero;stroke:none"
             id="path7950" /><path
             d="m 15161.8,10041.9 342.1,-100.1 c 0,0 -19.7,-35.5 -84.6,-29.6 -64.9,5.9 -208.5,27.6 -208.5,27.6 l -49,102.1"
             style="fill:#ffb27d;fill-opacity:1;fill-rule:nonzero;stroke:none"
             id="path7952" /><path
             d="m 18109.9,2117.2 3117.8,116.9 c 20.2,32.7 37.6,64.7 52.1,96 l 0.2,0.1 c 11,23.5 20.4,46.6 28.4,69.4 115.7,328.3 -72.6,570.4 -334,660.5 -303.7,104.7 -541.8,-118.8 -541.8,-118.8 0,0 -569.8,497.7 -1596.7,424.9 -598.1,-42.5 -891.7,-464.5 -1032.7,-809.7 -87.6,-214.5 75.1,-447.9 306.7,-439.3"
             style="fill:#2b478b;fill-opacity:1;fill-rule:nonzero;stroke:none"
             id="path7954" /><path
             d="m 18204.7,2415.5 c 0,0 303.9,-120.6 655.6,-24.4 371.7,101.7 1321.4,200.1 1466.6,-190.7 l -2140.2,-86 18,301.1"
             style="fill:#2e3552;fill-opacity:1;fill-rule:nonzero;stroke:none"
             id="path7960" /><path
             d="m 18108,2472.5 c 0,0 268.8,-205.9 642.8,-126.6 374.1,79.3 1149.6,89.6 1261.6,5.3 0,0 105.9,-53.1 36.4,-133.1 -69.5,-79.9 -643.8,-52.2 -884.6,-67.1 -175.9,-10.9 -1072.6,-88.8 -1206.1,-1.9 -133.5,86.8 149.9,323.4 149.9,323.4"
             style="fill:#2b478b;fill-opacity:1;fill-rule:nonzero;stroke:none"
             id="path7964" /><path
             d="m 17428.4,1900.4 c 0,0 27.7,415.5 570.1,462.1 542.4,46.6 1353.7,-121 1780.3,-104.1 426.6,16.9 1703.8,52.6 1905.9,-7.1 202,-59.6 427.8,-122.5 402.8,-354.5 l -4659.1,3.6"
             style="fill:#ed7d2b;fill-opacity:1;fill-rule:nonzero;stroke:none"
             id="path7976" /><path
             d="M 30585.9,1783.2 H 2665.49 c -21.89,0 -39.8,17.9 -39.8,39.8 v 37.4 c 0,21.9 17.91,39.8 39.8,39.8 H 30585.9 c 21.9,0 39.8,-17.9 39.8,-39.8 V 1823 c 0,-21.9 -17.9,-39.8 -39.8,-39.8"
             style="fill:#2e3552;fill-opacity:1;fill-rule:nonzero;stroke:none"
             id="path7978" /><path
             d="m 19094.7,18966.1 0.2,0.1 c 286.5,69.8 579.9,121.6 877.5,155.8 -297.8,-34.2 -591.1,-86.1 -877.7,-155.9"
             style="fill:#374774;fill-opacity:1;fill-rule:nonzero;stroke:none"
             id="path7992" /><path
             d="m 6846.88,7588 c -32.26,83.4 -10.44,114.2 25.62,120.8 40.34,7.3 95.37,-20.6 130.22,-68.3 3.94,-59.1 18.02,-115.5 40.62,-167.5 -56.48,13.8 -170.99,49.2 -196.46,115 z m 1167.91,348.1 h -219.37 v 0 h -789.83 c -2.63,-20.9 -4.14,-42.1 -4.14,-63.6 V 7775 c -67.28,14.2 -160.14,25.7 -207.87,-3.8 -80.07,-49.5 -55.63,-194.3 19.73,-283.8 75.38,-89.5 315.49,-148.6 315.49,-148.6 l -0.05,0.1 c 48.16,-54.7 107.93,-98.8 175.17,-128.9 h -1 v -62.2 h 415.28 v 62.2 h -1.75 c 177.71,79.6 302.5,258 302.5,464.4 v 198.1 c 0,21.5 -1.52,42.7 -4.16,63.6"
             style="fill:#2c3a64;fill-opacity:1;fill-rule:nonzero;stroke:none"
             id="path7996" /></g></g><g
         id="g10072"><g
           id="g9826"><path
             id="path418"
             style="fill:#f1f3fe;fill-opacity:1;fill-rule:nonzero;stroke:none;stroke-width:0.87110126"
             d="m 4157.1413,12039.183 c 0,0 427.7609,1801.789 2146.8842,2862.873 659.5407,407.097 -678.0035,2023.107 -48.1957,1891.853 1446.143,-422.477 1025.7311,384.165 1787.7146,919.777 1893.6851,1331.081 2907.8526,770.917 3933.8546,-886.062 770.042,-1243.396 1177.867,-2047.727 1564.093,-3015.919 601.561,-1507.914 -673.755,-1851.896 -673.755,-1851.896 l -8710.5957,79.374" /><path
             d="m 7702.1962,17086.481 c 36.0362,51.675 68.9149,112.718 39.9513,180.517 -33.0682,77.377 -106.4877,94.027 -169.4246,98.279 39.846,129.452 -110.3608,237.182 -235.6243,189.189 -23.2383,141.072 -253.8951,142.714 -323.6099,44.814 -88.9116,84.008 -279.3223,37.342 -316.6635,-87.754 -72.0934,27.09 -172.8136,7.346 -223.079,-40.856 -54.0753,-51.865 -75.777,-138.419 -44.0349,-213.102 -153.4274,-13.029 -215.9434,-205.082 -121.4957,-318.916 -91.4797,-87.774 -83.2284,-234.172 31.5947,-295.782 -57.5904,-116.802 23.975,-241.308 150.6278,-264.841 -13.303,-61.379 -10.314,-143.071 43.4455,-182.791 46.7712,-34.584 161.0261,-23.344 199.525,27.133 24.5222,-33.869 69.6938,-75.967 114.1917,-80.282 55.5698,-5.41 78.5976,29.763 89.3116,85.333 123.8743,-67.483 305.7601,-10.25 323.8624,137.283 45.9924,-16.018 101.2465,-7.409 139.6401,22.439 51.2758,39.845 68.5992,101.393 68.7466,163.13 58.664,0.443 115.3493,25.091 152.438,72.072 34.4154,43.636 52.1809,110.13 32.6052,163.931 113.7706,53.276 148.5228,213.06 47.992,300.204"
             style="fill:#271a33;fill-opacity:1;fill-rule:nonzero;stroke:none;stroke-width:2.10491586"
             id="path4749" /><path
             id="path420"
             style="fill:#75a1de;fill-opacity:1;fill-rule:nonzero;stroke:none"
             d="m 10177.033,12029.209 -1260.2998,-2.2 c -18,-0.1 -33,18.2 -34.1,40.6 -1,22.4 12.3,41.9 30.2,43.5 l 1255.2998,112.8 c 101.9,9.1 194.7,-30.3 197.4,-88.5 2.7,-58.2 -86.2,-106 -188.5,-106.2" /><path
             id="path456"
             style="fill:#6791c9;fill-opacity:1;fill-rule:nonzero;stroke:none"
             d="m 12034.733,14748.109 v -2465.6 c 0,-82 -77.3,-148.4 -172.6,-148.4 h -517.7 c -88.3,0 -159.9,-61.6 -159.9,-137.6 h 745 c 160.4,0 290.4,111.8 290.4,249.8 v 2501.8 h -185.2" /><path
             id="path458"
             style="fill:#95bef5;fill-opacity:1;fill-rule:nonzero;stroke:none"
             d="m 11656.133,12636.509 -82.2,15.7 c -54.3,10.3 -88.8,56.9 -76.8,103.6 l 644.2,2502.7 c 12.1,46.6 66.3,76.4 120.5,66 l 82.2,-15.6 c 54.2,-10.4 88.8,-57 76.8,-103.6 l -644.3,-2502.7 c -12,-46.7 -66.2,-76.4 -120.4,-66.1" /><path
             id="path460"
             style="fill:#75a1de;fill-opacity:1;fill-rule:nonzero;stroke:none"
             d="m 11678.533,12632.209 -9.6,1.9 c -41.9,8 -68.6,44 -59.4,80 l 654.2,2541.3 c 9.3,36.1 51.2,59 93.1,51 l 9.6,-1.8 c 41.9,-8 68.6,-44 59.3,-80 l -654.1,-2541.4 c -9.3,-36 -51.2,-58.9 -93.1,-51" /><path
             id="path472"
             style="fill:#9ec8ff;fill-opacity:1;fill-rule:nonzero;stroke:none"
             d="M 11840.333,15888.209 H 9389.4332 c -28,0 -50.7,22.7 -50.7,50.7 v 1419.1 c 0,28 22.7,50.8 50.7,50.8 h 2450.8998 c 28,0 50.7,-22.8 50.7,-50.8 v -1419.1 c 0,-28 -22.7,-50.7 -50.7,-50.7" /><path
             id="path474"
             style="fill:#ffffff;fill-opacity:1;fill-rule:nonzero;stroke:none"
             d="M 11768.633,15934.809 H 9461.1332 c -24.4,0 -44.2,19.8 -44.2,44.2 v 1141 c 0,24.4 19.8,44.2 44.2,44.2 h 2307.4998 c 24.4,0 44.2,-19.8 44.2,-44.2 v -1141 c 0,-24.4 -19.8,-44.2 -44.2,-44.2" /><path
             id="path476"
             style="fill:#ffffff;fill-opacity:1;fill-rule:nonzero;stroke:none"
             d="m 9518.7332,17237.309 h -53.9 c -11.4,0 -20.7,9.2 -20.7,20.6 v 44.4 c 0,11.4 9.3,20.6 20.7,20.6 h 53.9 c 11.3,0 20.6,-9.2 20.6,-20.6 v -44.4 c 0,-11.4 -9.3,-20.6 -20.6,-20.6" /><path
             id="path478"
             style="fill:#ffffff;fill-opacity:1;fill-rule:nonzero;stroke:none"
             d="m 9691.6332,17237.309 h -53.9 c -11.3,0 -20.6,9.2 -20.6,20.6 v 44.4 c 0,11.4 9.3,20.6 20.6,20.6 h 53.9 c 11.4,0 20.7,-9.2 20.7,-20.6 v -44.4 c 0,-11.4 -9.3,-20.6 -20.7,-20.6" /><path
             id="path480"
             style="fill:#ffffff;fill-opacity:1;fill-rule:nonzero;stroke:none"
             d="m 9864.6332,17237.309 h -53.9 c -11.4,0 -20.6,9.2 -20.6,20.6 v 44.4 c 0,11.4 9.2,20.6 20.6,20.6 h 53.9 c 11.4,0 20.6,-9.2 20.6,-20.6 v -44.4 c 0,-11.4 -9.2,-20.6 -20.6,-20.6" /><g
             transform="matrix(2.2218733,0,0,2.2218733,9170.5736,22276.765)"
             id="g9476"><path
               id="path8870"
               style="fill:#9cd499;fill-opacity:1;fill-rule:nonzero;stroke:none;stroke-width:0.99999994"
               d="m 1159.2341,-2373.0268 h -1015.5 v 37.29 h 1015.5 v -37.29" /><path
               id="path8872"
               style="fill:#9cd499;fill-opacity:1;fill-rule:nonzero;stroke:none;stroke-width:0.99999994"
               d="m 168.6641,-2816.1688 h -24.93 v 480.432 h 24.93 v -480.432" /><path
               id="path8874"
               style="fill:#17282f;fill-opacity:1;fill-rule:nonzero;stroke:none;stroke-width:0.99999994"
               d="m 1159.2341,-2818.6258 v 1.25 h -1014.25 v 480.3889 h 1013 v -481.6389 h 1.25 v 1.25 -1.25 h 1.25 v 482.889 l -0.36,0.88 -0.89,0.37 h -1015.5 l -0.88,-0.37 -0.37,-0.88 v -482.889 l 0.37,-0.8901 0.88,-0.36 h 1015.5 l 0.89,0.36 0.36,0.8901 h -1.25" /><path
               id="path8876"
               style="fill:#17282f;fill-opacity:1;fill-rule:nonzero;stroke:none;stroke-width:0.99999994"
               d="m 249.5041,-2337.5568 v -480.7801 l 1.25,-1.2499 1.25,1.2499 v 480.7801 l -1.25,1.25 -1.25,-1.25" /><path
               id="path8878"
               style="fill:#17282f;fill-opacity:1;fill-rule:nonzero;stroke:none;stroke-width:0.99999994"
               d="m 351.4841,-2337.5568 v -480.7801 l 1.25,-1.2499 1.25,1.2499 v 480.7801 l -1.25,1.25 -1.25,-1.25" /><path
               id="path8880"
               style="fill:#17282f;fill-opacity:1;fill-rule:nonzero;stroke:none;stroke-width:0.99999994"
               d="m 453.4741,-2337.5568 v -480.7801 l 1.25,-1.2499 1.25,1.2499 v 480.7801 l -1.25,1.25 -1.25,-1.25" /><path
               id="path8882"
               style="fill:#17282f;fill-opacity:1;fill-rule:nonzero;stroke:none;stroke-width:0.99999994"
               d="m 555.4641,-2337.5568 v -480.7801 l 1.25,-1.2499 1.25,1.2499 v 480.7801 l -1.25,1.25 -1.25,-1.25" /><path
               id="path8884"
               style="fill:#17282f;fill-opacity:1;fill-rule:nonzero;stroke:none;stroke-width:0.99999994"
               d="m 657.4641,-2337.5568 v -480.7801 l 1.25,-1.2499 1.25,1.2499 v 480.7801 l -1.25,1.25 -1.25,-1.25" /><path
               id="path8886"
               style="fill:#17282f;fill-opacity:1;fill-rule:nonzero;stroke:none;stroke-width:0.99999994"
               d="m 759.4541,-2337.5568 v -480.7801 l 1.25,-1.2499 1.25,1.2499 v 480.7801 l -1.25,1.25 -1.25,-1.25" /><path
               id="path8888"
               style="fill:#17282f;fill-opacity:1;fill-rule:nonzero;stroke:none;stroke-width:0.99999994"
               d="m 861.4441,-2337.5568 v -480.7801 l 1.25,-1.2499 1.25,1.2499 v 480.7801 l -1.25,1.25 -1.25,-1.25" /><path
               id="path8890"
               style="fill:#17282f;fill-opacity:1;fill-rule:nonzero;stroke:none;stroke-width:0.99999994"
               d="m 963.4241,-2337.5568 v -480.7801 l 1.25,-1.2499 1.25,1.2499 v 480.7801 l -1.25,1.25 -1.25,-1.25" /><path
               id="path8892"
               style="fill:#17282f;fill-opacity:1;fill-rule:nonzero;stroke:none;stroke-width:0.99999994"
               d="m 1065.4141,-2337.5568 v -480.7801 l 1.25,-1.2499 1.25,1.2499 v 480.7801 l -1.25,1.25 -1.25,-1.25" /><path
               id="path8894"
               style="fill:#17282f;fill-opacity:1;fill-rule:nonzero;stroke:none;stroke-width:0.99999994"
               d="m 145.4641,-2438.8168 h 1012.44 l 1.25,1.2499 -1.25,1.25 h -1012.44 l -1.25,-1.25 1.25,-1.2499" /><path
               id="path8896"
               style="fill:#17282f;fill-opacity:1;fill-rule:nonzero;stroke:none;stroke-width:0.99999994"
               d="m 145.4641,-2500.2349 h 1012.44 l 1.25,1.2501 -1.25,1.25 h -1012.44 l -1.25,-1.25 1.25,-1.2501" /><path
               id="path8898"
               style="fill:#17282f;fill-opacity:1;fill-rule:nonzero;stroke:none;stroke-width:0.99999994"
               d="m 145.4641,-2561.6449 h 1012.44 l 1.25,1.25 -1.25,1.2501 h -1012.44 l -1.25,-1.2501 1.25,-1.25" /><path
               id="path8900"
               style="fill:#17282f;fill-opacity:1;fill-rule:nonzero;stroke:none;stroke-width:0.99999994"
               d="m 145.4641,-2623.0548 h 1012.44 l 1.25,1.2499 -1.25,1.2501 h -1012.44 l -1.25,-1.2501 1.25,-1.2499" /><path
               id="path8902"
               style="fill:#17282f;fill-opacity:1;fill-rule:nonzero;stroke:none;stroke-width:0.99999994"
               d="m 145.4641,-2684.4648 h 1012.44 l 1.25,1.2499 -1.25,1.25 h -1012.44 l -1.25,-1.25 1.25,-1.2499" /><path
               id="path8904"
               style="fill:#17282f;fill-opacity:1;fill-rule:nonzero;stroke:none;stroke-width:0.99999994"
               d="m 145.4641,-2745.8869 h 1012.44 l 1.25,1.2501 -1.25,1.2499 h -1012.44 l -1.25,-1.2499 1.25,-1.2501" /><path
               id="path8906"
               style="fill:#17282f;fill-opacity:1;fill-rule:nonzero;stroke:none;stroke-width:0.99999994"
               d="m 823.1041,-2643.9648 h -42.34 v -98.7931 h 42.34 v 98.7931" /><path
               id="path8908"
               style="fill:#17282f;fill-opacity:1;fill-rule:nonzero;stroke:none;stroke-width:0.99999994"
               d="m 823.1041,-2643.9648 v 2.4999 h -44.84 v -103.7929 h 47.34 v 103.7929 h -2.5 v -2.4999 h -2.5 v -96.2931 h -37.34 v 93.793 h 39.84 v 2.5001 h -2.5 2.5" /><path
               id="path8910"
               style="fill:#ffcc00;fill-opacity:1;fill-rule:nonzero;stroke:none;stroke-width:0.99999994"
               d="m 890.8441,-2584.6878 h -42.34 v -158.0701 h 42.34 v 158.0701" /><path
               id="path8912"
               style="fill:#17282f;fill-opacity:1;fill-rule:nonzero;stroke:none;stroke-width:0.99999994"
               d="m 890.8441,-2584.6878 v 2.5 h -44.84 v -163.07 h 47.34 v 163.07 h -2.5 v -2.5 h -2.5 v -155.5701 h -37.34 v 153.07 h 39.84 v 2.5001 h -2.5 2.5" /><path
               id="path8914"
               style="fill:#17282f;fill-opacity:1;fill-rule:nonzero;stroke:none;stroke-width:0.99999994"
               d="m 958.5941,-2485.8868 h -42.35 v -256.8711 h 42.35 v 256.8711" /><path
               id="path8916"
               style="fill:#17282f;fill-opacity:1;fill-rule:nonzero;stroke:none;stroke-width:0.99999994"
               d="m 958.5941,-2485.8868 v 2.4999 h -44.85 v -261.8709 h 47.35 v 261.8709 h -2.5 v -2.4999 h -2.5 v -254.3711 h -37.35 v 251.8711 h 39.85 v 2.5 h -2.5 2.5" /><path
               id="path8918"
               style="fill:#ff7f2a;fill-opacity:1;fill-rule:nonzero;stroke:none;stroke-width:0.99999994"
               d="m 1026.3341,-2581.8679 h -42.33 v -160.89 h 42.33 v 160.89" /><path
               id="path8920"
               style="fill:#17282f;fill-opacity:1;fill-rule:nonzero;stroke:none;stroke-width:0.99999994"
               d="m 1026.3341,-2581.8679 v 2.5001 h -44.83 v -165.89 h 47.33 v 165.89 h -2.5 v -2.5001 h -2.5 v -158.39 h -37.33 v 155.89 h 39.83 v 2.5 h -2.5 2.5" /><path
               id="path8922"
               style="fill:#17282f;fill-opacity:1;fill-rule:nonzero;stroke:none;stroke-width:0.99999994"
               d="m 1094.0841,-2485.8868 h -42.34 v -256.8711 h 42.34 v 256.8711" /><path
               id="path8924"
               style="fill:#17282f;fill-opacity:1;fill-rule:nonzero;stroke:none;stroke-width:0.99999994"
               d="m 1094.0841,-2485.8868 v 2.4999 h -44.84 v -261.8709 h 47.34 v 261.8709 h -2.5 v -2.4999 h -2.5 v -254.3711 h -37.34 v 251.8711 h 39.84 v 2.5 h -2.5 2.5" /><path
               id="path8926"
               style="fill:#ff5555;fill-opacity:1;fill-rule:nonzero;stroke:none;stroke-width:0.99999994"
               d="m 387.5241,-2624.0078 v -117.3871 c -64.83,0 -117.4,52.5581 -117.4,117.3871 0,64.851 52.57,117.4099 117.4,117.4099 v -117.4099" /><path
               id="path8928"
               style="fill:#17282f;fill-opacity:1;fill-rule:nonzero;stroke:none;stroke-width:0.99999994"
               d="m 387.5241,-2624.0078 h -2.5 v -117.3871 h 2.5 v 2.5001 c -31.73,0 -60.44,12.859 -81.24,33.648 -20.8,20.8009 -33.66,49.5119 -33.66,81.239 0,31.742 12.86,60.453 33.66,81.2499 20.8,20.8 49.51,33.6601 81.24,33.6601 v 2.4999 h -2.5 v -117.4099 h 2.5 2.5 v 119.91 h -2.5 c -66.21,-0.01 -119.9,-53.6801 -119.9,-119.91 0,-66.2071 53.69,-119.8871 119.9,-119.8871 h 2.5 v 119.8871 h -2.5" /><path
               id="path8930"
               style="fill:#ffffff;fill-opacity:1;fill-rule:nonzero;stroke:none;stroke-width:0.99999994"
               d="m 387.5241,-2624.0078 111.65,36.281 c 20.04,-61.6601 -13.71,-127.891 -75.37,-147.9301 -12.33,-3.9999 -23.31,-5.738 -36.28,-5.738 v 117.3871" /><path
               id="path8932"
               style="fill:#17282f;fill-opacity:1;fill-rule:nonzero;stroke:none;stroke-width:0.99999994"
               d="m 387.5241,-2624.0078 0.78,-2.368 111.65,36.2779 -0.78,2.3711 -2.37,-0.77 c 3.83,-11.8 5.65,-23.761 5.65,-35.5311 0,-48.418 -30.87,-93.469 -79.42,-109.2499 -12.12,-3.9301 -22.76,-5.6091 -35.51,-5.617 v -2.5001 h 2.5 v 117.3871 h -2.5 l 0.78,-2.368 -0.78,2.368 h -2.5 v -119.8871 h 2.5 c 13.19,0 24.51,1.789 37.05,5.8671 50.67,16.473 82.88,63.4609 82.88,113.9999 0,12.2811 -1.9,24.7701 -5.9,37.0821 l -0.77,2.367 -115.76,-37.609 v -1.82 h 2.5" /><path
               id="path8934"
               style="fill:#17282f;fill-opacity:1;fill-rule:nonzero;stroke:none;stroke-width:0.99999994"
               d="m 387.5241,-2624.0078 v 117.4099 c 51.87,0 95.63,-31.789 111.65,-81.1289 l -111.65,-36.281" /><path
               id="path8936"
               style="fill:#17282f;fill-opacity:1;fill-rule:nonzero;stroke:none;stroke-width:0.99999994"
               d="m 387.5241,-2624.0078 h 2.5 v 117.4099 h -2.5 v -2.4999 c 50.83,-0.028 93.55,-31.0591 109.28,-79.399 l 2.37,0.77 -0.77,2.379 -111.65,-36.278 0.77,-2.382 h 2.5 -2.5 l 0.78,-2.368 114.02,37.047 -0.77,2.383 c -16.32,50.328 -61.12,82.867 -114.03,82.848 h -2.5 v -123.348 l 3.28,1.07 -0.78,2.368" /></g><path
             id="path544"
             style="fill:#9ec8ff;fill-opacity:1;fill-rule:nonzero;stroke:none;stroke-width:0.80061197"
             d="m 9942.3534,15234.309 h -947.4316 c -8.9096,0 -16.0886,11.3 -16.0886,25.1 v 823.8 c 0,13.9 7.179,25.1 16.0886,25.1 h 947.4316 c 8.9096,0 16.0886,-11.2 16.0886,-25.1 v -823.8 c 0,-13.8 -7.179,-25.1 -16.0886,-25.1" /><path
             id="path546"
             style="fill:#ffffff;fill-opacity:1;fill-rule:nonzero;stroke:none;stroke-width:0.7868064"
             d="m 9903.2682,15272.809 h -875.6043 c -8.0478,0 -14.548,10.5 -14.548,23.5 v 750.1 c 0,12.9 6.5002,23.4 14.548,23.4 h 875.6043 c 7.9859,0 14.4861,-10.5 14.4861,-23.4 v -750.1 c 0,-13 -6.5002,-23.5 -14.4861,-23.5" /><path
             id="path558"
             style="fill:#9ec8ff;fill-opacity:1;fill-rule:nonzero;stroke:none"
             d="m 11380.033,14530.909 h -955.8 c -23.9,0 -43.5,19.6 -43.5,43.5 0,23.9 19.6,43.4 43.5,43.4 h 955.8 c 23.9,0 43.5,-19.5 43.5,-43.4 0,-23.9 -19.6,-43.5 -43.5,-43.5" /><path
             id="path560"
             style="fill:#9ec8ff;fill-opacity:1;fill-rule:nonzero;stroke:none"
             d="m 11380.033,14371.609 h -955.8 c -23.9,0 -43.5,19.6 -43.5,43.5 0,23.9 19.6,43.4 43.5,43.4 h 955.8 c 23.9,0 43.5,-19.5 43.5,-43.4 0,-23.9 -19.6,-43.5 -43.5,-43.5" /><path
             id="path562"
             style="fill:#9ec8ff;fill-opacity:1;fill-rule:nonzero;stroke:none;stroke-width:0.78046197"
             d="m 10989.428,14197.809 h -582.198 c -14.558,0 -26.497,19.6 -26.497,43.5 0,23.9 11.939,43.4 26.497,43.4 h 582.198 c 14.558,0 26.496,-19.5 26.496,-43.4 0,-23.9 -11.938,-43.5 -26.496,-43.5" /><path
             id="path28"
             style="fill:#9b4536;fill-opacity:1;fill-rule:nonzero;stroke:none"
             d="m 7937.8592,12272.301 c 0,0 503.38,-98.6 529.33,-93.4 25.95,5.2 576.039,249.1 633.119,212.8 57.09,-36.3 389.22,-176.5 461.87,-207.6 72.65,-31.1 -41.52,-41.5 -98.6,-41.5 -57.09,0 -384.02,134.9 -420.35,109 -36.33,-26 285.42,-77.9 285.42,-98.6 0,-20.8 -861.459,-218 -913.349,-218 -51.9,0 -451.49,36.3 -451.49,36.3 l -25.95,301" /><path
             id="path30"
             style="fill:#1a1a1a;fill-opacity:1;fill-rule:nonzero;stroke:none"
             d="m 7520.0992,15021.501 c 271.16,-53.2 430.74,-340.2 482.63,-591.5 51.89,-251.4 -482.63,591.5 -482.63,591.5" /><g
             transform="translate(1492.7295,280.70051)"
             id="g32"><g
               clip-path="url(#clipPath38)"
               id="g34"><path
                 id="path40"
                 style="fill:#333333;fill-opacity:1;fill-rule:nonzero;stroke:none"
                 d="m 5573.29,14934.1 c 0,0 -521.54,-350.3 -801.78,-521.6 -280.23,-171.2 101.2,-2016.1 194.61,-2701.1 93.41,-685 1504.9597,-20.8 1504.9597,-20.8 0,0 -127.8491,673.489 350.4252,1406.552 305.6841,464.224 -378.9749,1133.748 -589.1449,1421.748 -530.46,726.9 -659.07,415.2 -659.07,415.2" /><path
                 id="path42"
                 style="fill:#1a1a1a;fill-opacity:1;fill-rule:nonzero;stroke:none"
                 d="m 5059.53,14404.8 c 599.39,-731.8 898.6184,-892.755 750.4984,-1386.455 -116.76,-389.2 -252.3084,-505.145 -275.6584,-637.545 -23.35,-132.3 1113.15,85.7 1113.15,85.7 l -202.3903,-474.9 c 0,0 -700.5797,-381.4 -1136.5097,-467 -435.91,-85.7 -708.36,15.5 -708.36,15.5 l 459.27,2864.7" /></g></g><path
             id="path46"
             style="fill:#b5574a;fill-opacity:1;fill-rule:nonzero;stroke:none"
             d="m 7258.0292,15951.701 -269.85,-799.2 c 0,0 295.8,-801.8 544.9,-622.7 85.04,61.1 -31.14,544.9 -31.14,544.9 l 181.63,648.7 -425.54,228.3" /><path
             id="path48"
             style="fill:#b5574a;fill-opacity:1;fill-rule:nonzero;stroke:none"
             d="m 6441.5692,14776.601 c -372.64,-41.4 -404.78,-544.9 -576.03,-1385.6 -171.26,-840.7 -119.79,-1395.6 -38.92,-1502.4 194.6,-256.9 2381.98,638.3 2654.44,630.5 188.03,-5.3 31.13,311.4 31.13,311.4 l -2086.19,-319.1 c 0,0 295.81,973 295.81,1471.2 0,498.2 -140.12,809.6 -280.24,794" /><path
             id="path50"
             style="fill:#9b4536;fill-opacity:1;fill-rule:nonzero;stroke:none"
             d="m 8379.8592,12815.001 c 217.96,54.4 537.11,179 599.379,124.5 62.28,-54.5 319.16,-443.7 404.79,-552.7 85.62,-109 -38.92,-23.3 -132.33,62.3 -93.41,85.6 -171.26,132.3 -171.26,132.3 0,0 -116.76,-109 -225.739,-171.2 -108.98,-62.3 -147.9,62.2 -334.72,93.4 -186.83,31.1 -653.88,-132.4 -653.88,-132.4 l 513.76,443.8" /><path
             id="path52"
             style="fill:#333333;fill-opacity:1;fill-rule:nonzero;stroke:none"
             d="m 6438.0892,14793.901 c -228.34,-10.4 -404.78,-202.4 -467.05,-498.2 -62.28,-295.8 -243.92,-1235.1 -243.92,-1235.1 0,0 -36.32,-26 342.51,-93.5 378.84,-67.4 690.21,10.4 690.21,10.4 0,0 77.84,534.6 57.08,903 -20.75,368.5 -103.79,716.2 -238.71,835.5 -134.93,119.4 -140.12,77.9 -140.12,77.9" /><path
             id="path54"
             style="fill:#9b4536;fill-opacity:1;fill-rule:nonzero;stroke:none"
             d="m 7501.9392,15074.701 181.63,648.7 -425.54,228.3 -65,-192.5 c -14.14,-644.5 150.94,-860 262.2,-938.8 34.75,-24.6 64.63,-5.6 89.68,34.6 -18.28,116.8 -42.97,219.7 -42.97,219.7" /><path
             id="path56"
             style="fill:#b5574a;fill-opacity:1;fill-rule:nonzero;stroke:none"
             d="m 8365.9992,15876.401 c 0,-347.1 -246.754,-796.955 -547.824,-786.955 -467.06,15.5 -556.056,402.755 -556.056,749.955 0,347.2 220.0454,809.859 521.2854,809.859 301.23,0 582.5946,-425.659 582.5946,-772.859" /><path
             d="m 7939.9465,16802.359 c 0,0 -350.9106,401.365 -830.9366,90.932 -446.6001,-288.836 -272.0815,-802.035 -205.8398,-760.169 29.4688,18.607 1036.7764,669.237 1036.7764,669.237"
             style="fill:#9cd499;fill-opacity:1;fill-rule:nonzero;stroke:none;stroke-width:2.10491586"
             id="path4751" /><path
             d="m 7092.2227,15809.704 c 10.1106,1.069 115.384,73.42 102.7186,133.449 -12.6473,60.029 8.353,67.621 76.681,113.155 68.31,45.552 113.862,79.925 116.3987,137.381 2.5186,57.457 6.8129,57.076 133.7207,129.39 126.8898,72.296 126.8898,121.907 124.3531,184.401 -2.5367,62.493 108.8791,81.736 122.2874,139.573 0,0 78.0219,-13.825 103.1172,-104.929 25.0953,-91.086 41.0041,-106.27 83.657,-131.565 42.6529,-25.312 98.7142,20.24 133.9382,-32.904 35.224,-53.126 24.2255,-78.058 85.9219,-127.198 16.0175,-12.756 84.418,-38.975 93.532,-78.729 9.0959,-39.772 55.6989,-127.741 55.6989,-127.741 l -32.0169,270.431 -420.7311,465.559 -440.4631,-38.341 -493.4259,-491.179 154.6123,-440.753"
             style="fill:#9b4536;fill-opacity:1;fill-rule:nonzero;stroke:none;stroke-width:1.81193411"
             id="path4757" /><path
             d="m 8329.3656,16082.467 c 2.0078,10.033 -26.829,79.858 -32.3679,127.462 -5.5386,47.605 -77.3709,37.991 -109.2365,87.611 -31.8312,49.465 -12.7915,76.136 -58.4872,118.003 -45.8687,42.023 -111.6428,22.95 -154.2228,57.219 -42.7531,34.269 -8.3083,55.202 -70.1013,120.019 -61.6199,64.661 -136.5677,54.272 -136.5677,54.272 -23.7132,-67.763 -75.9863,-56.133 -120.2972,-90.557 -44.311,-34.269 20.9438,-68.538 -52.4462,-142.813 -73.2168,-74.276 -132.9328,-59.08 -181.9171,-104.668 -48.9844,-45.589 -2.0771,-66.677 -55.2156,-124.671 -53.1385,-57.994 -97.7956,-46.829 -131.7212,-100.171 -34.0986,-53.342 4.1542,-74.275 0,-137.541 -4.3272,-63.266 -59.5428,-98.621 -61.6198,-104.358 l -16.7897,3.566 c -0.5193,-27.601 -0.5193,-52.411 -0.3462,-71.639 -78.4096,8.063 -90.1797,6.358 -158.0308,4.032 -79.4481,138.937 -154.2228,335.557 -141.068,508.143 13.3279,172.585 91.2182,346.101 237.4789,458.832 38.2528,29.462 80.4867,53.652 126.3554,72.415 113.0275,46.984 247.345,61.095 394.125,42.487 124.6245,55.357 269.6735,29.772 374.3927,-19.383 104.5461,-49 188.6678,-128.858 249.4222,-219.57 27.002,-40.316 49.1574,-84.354 66.2931,-130.563 48.9846,-130.253 59.5257,-277.874 32.3679,-408.127"
             style="fill:#33233e;fill-opacity:1;fill-rule:nonzero;stroke:none;stroke-width:1.63828731"
             id="path4775" /><path
             id="path66"
             style="fill:#ffffff;fill-opacity:1;fill-rule:nonzero;stroke:none"
             d="m 7561.0992,15822.801 c -31.73,-210 -199.35,-358.8 -374.39,-332.4 -175.04,26.5 -291.21,218.2 -259.48,428.2 31.74,210 199.36,358.8 374.4,332.3 175.04,-26.4 291.21,-218.1 259.47,-428.1" /><path
             d="m 8286.6714,16504.852 c -95.1873,135.861 -228.9379,227.667 -422.2414,278.498 -69.8041,18.331 -147.7438,37.893 -210.2258,2.927 -117.6418,56.069 -256.111,69.471 -386.7699,43.438 106.2519,46.674 232.5176,60.691 370.4986,42.206 117.1537,54.992 253.5075,29.576 351.9491,-19.254 98.279,-48.676 177.3578,-128.004 234.4702,-218.116 25.3833,-40.049 46.2106,-83.796 62.3192,-129.699"
             style="fill:#4d3659;fill-opacity:1;fill-rule:nonzero;stroke:none;stroke-width:1.58315527"
             id="path4777" /><path
             id="path72"
             style="fill:#ffffff;fill-opacity:1;fill-rule:nonzero;stroke:none;stroke-width:1.36223722"
             d="m 7072.197,16156.249 c 197.0871,806.689 877.401,689.059 1049.4172,576.717 144.8551,-94.619 165.0572,-228.114 165.0572,-228.114 0,0 -186.9601,166.941 -505.3115,105.767 -302.0963,-58.029 -481.7597,-254.127 -507.0253,-470.95 -12.8795,-110.626 -202.1376,16.58 -202.1376,16.58" /><path
             id="path68"
             style="fill:#9cd499;fill-opacity:1;fill-rule:nonzero;stroke:none"
             d="m 7479.6492,15813.401 c -29.38,-194.4 -167,-334.9 -307.37,-313.7 -140.38,21.3 -230.36,196.1 -200.98,390.5 29.39,194.5 167.01,334.9 307.38,313.7 140.38,-21.2 230.36,-196 200.97,-390.5" /><path
             id="path70"
             style="fill:#ffffff;fill-opacity:1;fill-rule:nonzero;stroke:none"
             d="m 7220.1292,15871.901 c -16.15,-106.9 -74.34,-186.7 -130,-178.3 -55.65,8.4 -87.68,101.9 -71.53,208.7 16.14,106.8 74.34,186.6 129.99,178.2 55.65,-8.4 87.68,-101.8 71.54,-208.6" /><path
             id="path462"
             style="fill:#2e5b9a;fill-opacity:1;fill-rule:nonzero;stroke:none;stroke-width:0.89748031"
             d="M 13408.873,11844.877 H 4171.9439 c -42.7283,0 -77.3767,40.047 -77.3767,89.455 0,49.407 34.6484,89.454 77.3767,89.454 h 9236.9291 c 42.736,0 77.46,-40.047 77.46,-89.454 0,-49.408 -34.724,-89.455 -77.46,-89.455" /><g
             transform="matrix(0.81148574,0,0,0.81148574,1185.0338,2614.7239)"
             id="g8240"><path
               id="path7235"
               style="fill:#afe9c6;fill-opacity:1;fill-rule:nonzero;stroke:none;stroke-width:0.99999994"
               d="m 4143.7764,15378.757 c 161.98,-125.57 365.31,-200.37 586.1299,-200.37 303.3301,0 573.6801,141.09 749.1201,361.18 l -749.1201,596.35 -586.1299,-757.16" /><path
               id="path7237"
               style="fill:#ffaacc;fill-opacity:1;fill-rule:nonzero;stroke:none;stroke-width:0.99999994"
               d="m 4718.2264,17181.017 c -528.82,0 -957.52,-428.7 -957.52,-957.53 0,-163.86 41.19,-318.08 113.74,-452.95 l 843.78,452.95 v 957.53" /><path
               id="path7239"
               style="fill:#aaccff;fill-opacity:1;fill-rule:nonzero;stroke:none;stroke-width:0.99999994"
               d="m 4759.0963,16194.297 749.1201,-596.34 c 130.42,163.6 208.41,370.85 208.41,596.34 h -957.5301" /><path
               id="path7241"
               style="fill:#26445d;fill-opacity:1;fill-rule:nonzero;stroke:none;stroke-width:0.99999994"
               d="m 3799.5564,15648.267 c 59.51,-106.8 140.99,-202.99 236.76,-279.52 l 538.5799,695.73 z m 241.54,-317.8 -10.76,8.34 c -106.99,82.95 -197.34,189.63 -261.3,308.52 l -6.45,11.99 912.14,489.65 -633.63,-818.5" /><path
               id="path7245"
               style="fill:#26445d;fill-opacity:1;fill-rule:nonzero;stroke:none;stroke-width:0.99999994"
               d="m 4930.4064,17269.757 c -20.44,1.85 -41.26,3.05 -61.86,3.59 l 0.49,19.04 c 21.01,-0.53 42.24,-1.76 63.09,-3.65 z m 95.98,-13.67 c -20.16,3.93 -40.74,7.25 -61.16,9.86 l 2.42,18.91 c 20.83,-2.67 41.82,-6.05 62.39,-10.07 z m 94.07,-23.44 c -19.66,5.99 -39.79,11.4 -59.82,16.09 l 4.34,18.56 c 20.44,-4.78 40.98,-10.31 61.04,-16.42 z m -267.17,-12.07 h -19.06 v 62.61 h 19.06 z m 358.24,-20.89 c -18.95,7.98 -38.38,15.42 -57.76,22.13 l 6.23,18.01 c 19.77,-6.84 39.6,-14.44 58.93,-22.58 z m 87.16,-42.11 c -18.03,9.88 -36.6,19.28 -55.23,27.95 l 8.05,17.28 c 18.99,-8.85 37.95,-18.44 56.33,-28.52 z m -445.4,-35 h -19.06 v 62.61 h 19.06 z m 527.85,-15.83 c -16.93,11.67 -34.46,22.93 -52.11,33.47 l 9.77,16.35 c 18,-10.74 35.88,-22.23 53.15,-34.13 z m 76.88,-58.99 c -15.64,13.32 -31.94,26.31 -48.44,38.61 l 11.38,15.28 c 16.83,-12.54 33.46,-25.79 49.42,-39.38 z m -604.73,-23.19 h -19.06 v 62.62 h 19.06 z m 675.26,-43.34 c -14.23,14.86 -29.13,29.45 -44.29,43.34 l 12.88,14.05 c 15.46,-14.18 30.66,-29.05 45.18,-44.21 z m -675.26,-54.66 h -19.06 v 62.62 h 19.06 z m 738.69,-18.71 c -12.64,16.22 -25.99,32.25 -39.66,47.63 l 14.23,12.66 c 13.95,-15.68 27.57,-32.03 40.46,-48.58 z m -738.69,-79.29 h -19.06 v 62.61 h 19.06 z m 794.35,-0.19 c -10.92,17.42 -22.57,34.72 -34.62,51.43 l 15.45,11.15 c 12.29,-17.04 24.18,-34.69 35.32,-52.47 z m 47.26,-84.78 c -9.07,18.44 -18.89,36.85 -29.19,54.72 l 16.51,9.51 c 10.51,-18.22 20.52,-37.01 29.78,-55.82 z m -841.61,-13.03 h -19.06 v 62.61 h 19.06 z m 879.93,-76.2 c -7.14,19.32 -15.02,38.65 -23.41,57.45 l 17.39,7.77 c 8.57,-19.18 16.61,-38.9 23.9,-58.62 z m -879.93,-21.8 h -19.06 v 62.61 h 19.06 z m 908.84,-70.84 c -5.1,19.93 -10.94,39.94 -17.34,59.47 l 18.11,5.94 c 6.53,-19.93 12.48,-40.35 17.7,-60.68 z m -908.84,-27.17 h -19.06 v 62.62 h 19.06 z m 928.05,-67.86 c -3.04,20.35 -6.79,40.86 -11.14,60.94 l 18.61,4.04 c 4.45,-20.49 8.28,-41.4 11.38,-62.17 z m -928.05,-30.14 h -19.06 v 62.61 h 19.06 z m 937.44,-66.36 c -0.95,20.57 -2.59,41.35 -4.86,61.77 l 18.94,2.11 c 2.31,-20.83 3.98,-42.02 4.96,-63 z m -937.44,-31.64 h -19.06 v 62.61 h 19.06 z m 75.58,-22.42 h -62.61 v 19.06 h 62.61 z m 98.01,0 h -62.62 v 19.06 h 62.62 z m 98,0 h -62.61 v 19.06 h 62.61 z m 98,0 h -62.61 v 19.06 h 62.61 z m 98,0 h -62.61 v 19.06 h 62.61 z m 98.01,0 h -62.61 v 19.06 h 62.61 z m 98,0 h -62.61 v 19.06 h 62.61 z m 98,0 h -62.61 v 19.06 h 62.61 z m 98.01,0 h -62.62 v 19.06 h 62.62 z m 97.91,0 h -62.53 v 19.06 h 44.42 l 18.06,0.18 c 0.037,-3.23 0.052,-6.47 0.052,-9.71 v -9.53" /></g><path
             d="m 8948.2931,14178.11 -18.32,15.63 439.9,515.53 204.55,-262.15 374.19,471.89 176.6399,-210.48 339.7,354.98 17.4,-16.64 -358.27,-374.4 -174.9399,208.45 -374.86,-472.75 -205.24,263.03 -420.75,-493.09"
             style="fill:#26445d;fill-opacity:1;fill-rule:nonzero;stroke:none;stroke-width:0.99999994"
             id="path6963" /><path
             d="m 10419.843,15104.13 152.94,50.52 -50.52,-152.94 z"
             style="fill:#26445d;fill-opacity:1;fill-rule:nonzero;stroke:none;stroke-width:0.99999994"
             id="path6965" /><path
             d="m 9091.2572,15342.679 99.7719,481.909 99.7764,-481.909 z"
             style="fill:#e07243;fill-opacity:1;fill-rule:nonzero;stroke:none;stroke-width:0.43656224"
             id="path7039" /><path
             d="m 9311.9001,15342.679 99.772,698.771 99.7719,-698.771 z"
             style="fill:#5599ff;fill-opacity:1;fill-rule:nonzero;stroke:none;stroke-width:0.43656224"
             id="path7041" /><path
             d="m 9539.4144,15347.626 h 185.8054 l -92.9049,277.728 z m 199.544,-9.893 h -213.2868 l 106.6433,318.804 106.6435,-318.804"
             style="fill:#e07243;fill-opacity:1;fill-rule:nonzero;stroke:none;stroke-width:0.43656224"
             id="path7043" /><path
             d="m 9838.106,15303.437 h -795.2985 v 738.013 h 7.9149 v -730.098 h 787.3836 v -7.915"
             style="fill:#26445d;fill-opacity:1;fill-rule:nonzero;stroke:none;stroke-width:0.43656224"
             id="path7045" /><path
             d="m 12787.109,12049.533 h -412.315 v 145.61 h 413.637 c 32.159,0 58.226,-26.075 58.226,-58.244 v -27.823 c 0,-32.885 -26.658,-59.543 -59.548,-59.543"
             style="fill:#fcecdb;fill-opacity:1;fill-rule:nonzero;stroke:none;stroke-width:0.44803217"
             id="path7744" /><path
             d="m 13183.591,12105.242 v -21.909 c 0,-11.739 -3.15,-22.671 -8.656,-32.124 -11.053,-18.952 -31.614,-31.676 -55.153,-31.676 h -772.623 c -5.112,0 -9.256,4.122 -9.256,9.229 v 3.271 c 0,5.108 4.144,9.274 9.256,9.274 h 470.985 c 2.518,3.047 4.736,6.362 6.609,9.902 4.413,8.333 6.904,17.787 6.904,27.867 v 27.823 c 0,5.153 -0.663,10.126 -1.909,14.83 -2.105,8.02 -5.882,15.368 -10.918,21.64 h -471.671 c -5.112,0 -9.256,4.122 -9.256,9.23 v 3.27 c 0,5.108 4.144,9.274 9.256,9.274 h 776.512 c 27.366,0 50.444,-18.369 57.608,-43.414 1.505,-5.242 2.312,-10.797 2.312,-16.487"
             style="fill:#699dee;fill-opacity:1;fill-rule:nonzero;stroke:none;stroke-width:0.44803217"
             id="path7746" /><path
             d="m 13181.279,12121.729 h -351.531 c -2.105,8.02 -5.882,15.368 -10.918,21.64 h -471.671 c -5.112,0 -9.256,4.122 -9.256,9.23 v 3.27 c 0,5.108 4.144,9.274 9.256,9.274 h 776.512 c 27.366,0 50.444,-18.369 57.608,-43.414"
             style="fill:#548ee2;fill-opacity:1;fill-rule:nonzero;stroke:none;stroke-width:0.44803217"
             id="path7748" /><path
             d="m 12374.794,12122.338 57.209,-2.464 -57.209,-1.478 z"
             style="fill:#f4d2b8;fill-opacity:1;fill-rule:nonzero;stroke:none;stroke-width:0.44803217"
             id="path7750" /><path
             d="m 12374.794,12099.489 136.103,-2.465 -136.103,-1.478 z"
             style="fill:#f4d2b8;fill-opacity:1;fill-rule:nonzero;stroke:none;stroke-width:0.44803217"
             id="path7752" /><path
             d="m 12814.058,12374.554 44.682,-7.169 84.584,526.662 -44.686,7.213 -84.58,-526.706"
             style="fill:#1a1a1a;fill-opacity:1;fill-rule:nonzero;stroke:none;stroke-width:0.44803217"
             id="path7828" /><path
             d="m 12935.869,12990.374 7.455,-96.327 -44.686,7.213 z"
             style="fill:#efcbab;fill-opacity:1;fill-rule:nonzero;stroke:none;stroke-width:0.44803217"
             id="path7830" /><path
             d="m 12511.959,12324.06 44.494,8.244 -97.438,524.467 -44.494,-8.289 97.438,-524.422"
             style="fill:#b5453c;fill-opacity:1;fill-rule:nonzero;stroke:none;stroke-width:0.44803217"
             id="path7832" /><path
             d="m 12419.611,12944.943 39.404,-88.172 -44.494,-8.289 z"
             style="fill:#efcbab;fill-opacity:1;fill-rule:nonzero;stroke:none;stroke-width:0.44803217"
             id="path7834" /><path
             d="m 12568.375,12477.87 44.494,8.289 -97.438,524.421 -44.494,-8.244 97.438,-524.466"
             style="fill:#ff55dd;fill-opacity:1;fill-rule:nonzero;stroke:none;stroke-width:0.44803217"
             id="path7836" /><path
             d="m 12476.027,13098.798 39.404,-88.218 -44.494,-8.244 z"
             style="fill:#efcbab;fill-opacity:1;fill-rule:nonzero;stroke:none;stroke-width:0.44803217"
             id="path7838" /><path
             d="m 12419.31,12165.143 h 356.473 v 513.759 h -356.473 v -513.759"
             style="fill:#ed7d2b;fill-opacity:1;fill-rule:nonzero;stroke:none;stroke-width:0.44803217"
             id="path7840" /><path
             d="m 12597.547,12165.143 h 356.472 v 513.759 h -356.472 v -513.759"
             style="fill:#f99746;fill-opacity:1;fill-rule:nonzero;stroke:none;stroke-width:0.44803217"
             id="path7842" /><path
             id="path532"
             style="fill:#9cd499;fill-opacity:1;fill-rule:nonzero;stroke:none;stroke-width:1.8781426"
             d="m 11380.033,14530.909 h -382.766 c -33.055,0 -60.288,27.045 -60.288,60.101 v 172.037 c 0,33.056 27.233,60.101 60.288,60.101 h 382.766 c 33.055,0 60.288,-27.045 60.288,-60.101 v -172.037 c 0,-33.056 -27.233,-60.101 -60.288,-60.101" /><path
             id="path534"
             style="fill:#ffffff;fill-opacity:1;fill-rule:nonzero;stroke:none;stroke-width:1.8781426"
             d="m 11161.605,14578.989 h -1.127 c -8.264,0.376 -15.964,4.132 -21.411,10.33 l -71.557,81.324 c -11.081,12.396 -9.766,31.365 2.629,42.446 12.396,10.893 31.365,9.766 42.446,-2.817 l 50.71,-57.472 130.155,127.526 c 11.833,11.645 30.99,11.457 42.634,-0.563 11.457,-11.832 11.269,-30.802 -0.563,-42.446 l -152.881,-149.688 c -5.634,-5.447 -13.147,-8.64 -21.035,-8.64" /><path
             id="path562-4"
             style="fill:#9ec8ff;fill-opacity:1;fill-rule:nonzero;stroke:none;stroke-width:0.78046203"
             d="m 10989.428,14197.809 h -582.198 c -14.558,0 -26.497,19.6 -26.497,43.5 0,23.9 11.939,43.4 26.497,43.4 h 582.198 c 14.558,0 26.496,-19.5 26.496,-43.4 0,-23.9 -11.938,-43.5 -26.496,-43.5" /></g></g></g></g></svg>