<svg width="22" height="34" viewBox="0 0 22 34" fill="none" xmlns="http://www.w3.org/2000/svg">
<path d="M3.957 30.544H17.253V34H0.117V1.36H3.957V30.544Z" fill="black"/>
<path d="M17.3377 4.768C16.9537 4.32 16.7617 3.76 16.7617 3.088C16.7617 2.416 16.9537 1.872 17.3377 1.456C17.7217 1.008 18.2817 0.783998 19.0177 0.783998C19.7537 0.783998 20.3297 1.008 20.7457 1.456C21.1617 1.904 21.3697 2.448 21.3697 3.088C21.3697 3.728 21.1617 4.272 20.7457 4.72C20.3297 5.168 19.7537 5.392 19.0177 5.392C18.2817 5.392 17.7217 5.184 17.3377 4.768ZM17.2417 34V10H20.8897V34H17.2417Z" fill="#2BA4D8"/>
</svg>
