<svg width="102" height="46" viewBox="0 0 102 46" fill="none" xmlns="http://www.w3.org/2000/svg">
<path d="M4.16 30.544H17.456V34H0.32V1.36H4.16V30.544ZM24.0654 45.472L20.9454 44.416L24.2094 35.248L14.8494 10H18.7854L26.0334 30.064L33.1854 10H37.0254L24.0654 45.472ZM39.4066 13.12V10H56.5906L44.0146 30.88H56.5426V34H37.9186L50.3986 13.12H39.4066ZM69.6429 34.672C66.7629 34.672 64.3789 33.664 62.4909 31.648C60.6349 29.632 59.7069 26.672 59.7069 22.768C59.7069 18.864 60.8109 15.648 63.0189 13.12C65.2269 10.592 68.0909 9.328 71.6109 9.328C73.8509 9.328 75.6589 10.016 77.0349 11.392C78.4109 12.736 79.0989 14.432 79.0989 16.48C79.0989 18.496 78.0429 20.352 75.9309 22.048C73.8509 23.744 70.8109 24.592 66.8109 24.592C65.7549 24.592 64.6349 24.544 63.4509 24.448C63.6749 26.72 64.3629 28.448 65.5149 29.632C66.6989 30.816 68.1229 31.408 69.7869 31.408C72.5709 31.408 74.8909 30.544 76.7469 28.816L78.4749 31.168C76.0429 33.504 73.0989 34.672 69.6429 34.672ZM71.4669 12.592C69.2589 12.592 67.4189 13.376 65.9469 14.944C64.5069 16.512 63.6589 18.592 63.4029 21.184C64.4589 21.344 65.6269 21.424 66.9069 21.424C69.6589 21.424 71.7709 20.912 73.2429 19.888C74.7149 18.864 75.4509 17.68 75.4509 16.336C75.4509 15.344 75.0829 14.48 74.3469 13.744C73.6429 12.976 72.6829 12.592 71.4669 12.592ZM84.3969 0.399998H88.0449V28.72C88.0449 30.48 88.7649 31.36 90.2049 31.36C91.1329 31.36 92.0449 31.04 92.9409 30.4L94.3809 32.992C92.6209 34.112 90.9569 34.672 89.3889 34.672C87.8209 34.672 86.5889 34.24 85.6929 33.376C84.8289 32.512 84.3969 30.96 84.3969 28.72V0.399998Z" fill="black"/>
<path d="M97.8223 4.768C97.4383 4.32 97.2463 3.76 97.2463 3.088C97.2463 2.416 97.4383 1.872 97.8223 1.456C98.2063 1.008 98.7663 0.783998 99.5023 0.783998C100.238 0.783998 100.814 1.008 101.23 1.456C101.646 1.904 101.854 2.448 101.854 3.088C101.854 3.728 101.646 4.272 101.23 4.72C100.814 5.168 100.238 5.392 99.5023 5.392C98.7663 5.392 98.2063 5.184 97.8223 4.768ZM97.7263 34V10H101.374V34H97.7263Z" fill="#2BA4D8"/>
</svg>
